<?xml version="1.0" standalone="no"?>
<!DOCTYPE svg PUBLIC "-//W3C//DTD SVG 20010904//EN"
 "http://www.w3.org/TR/2001/REC-SVG-20010904/DTD/svg10.dtd">
<svg version="1.0" xmlns="http://www.w3.org/2000/svg"
 width="1000.000000pt" height="571.000000pt" viewBox="0 0 1000.000000 571.000000"
 preserveAspectRatio="xMidYMid meet">

<g transform="translate(0.000000,571.000000) scale(0.100000,-0.100000)"
fill="#000000" stroke="none">
<path d="M0 2855 l0 -2855 1374 0 c1090 0 1375 3 1379 13 4 10 7 10 18 0 10
-10 302 -13 1390 -13 1338 0 1377 1 1372 19 -3 11 2 21 12 25 21 8 48 -12 41
-31 -5 -11 362 -13 2204 -13 l2210 0 0 2855 0 2855 -1377 -1 c-758 -1 -1370
-3 -1360 -6 9 -2 17 -8 17 -12 0 -10 -69 -1 -76 10 -3 5 -1514 9 -3605 9
l-3599 0 0 -2855z m6788 2654 c42 -14 41 -32 -3 -59 -39 -24 -57 -23 -155 6
-57 17 -57 22 5 54 41 20 83 20 153 -1z m390 -139 c25 -6 42 -17 42 -25 0 -18
-62 -45 -102 -45 -35 0 -91 27 -86 42 6 17 70 49 88 44 8 -3 34 -10 58 -16z
m617 -3 c28 -9 174 -52 325 -97 380 -112 403 -119 420 -130 8 -5 13 -10 10
-10 -6 0 -186 51 -335 95 -49 15 -153 45 -230 67 -152 43 -273 82 -281 91 -9
9 38 1 91 -16z m-331 3 c56 -21 25 -49 -84 -74 -36 -9 -75 -18 -87 -22 -18 -5
-23 -2 -23 14 0 25 12 34 85 66 68 29 74 30 109 16z m260 -75 c-10 -8 -23 -14
-29 -14 -5 0 -1 6 9 14 11 8 24 15 30 15 5 0 1 -7 -10 -15z m116 -15 c0 -5
-22 -21 -50 -35 -68 -35 -116 -33 -72 2 43 35 122 56 122 33z m-165 -10 c-3
-5 -12 -10 -18 -10 -7 0 -6 4 3 10 19 12 23 12 15 0z m269 -18 c6 -9 -76 -52
-99 -52 -26 0 -16 15 23 38 39 23 67 28 76 14z m82 -47 c-36 -19 -50 -19 -34
0 7 8 24 14 38 15 25 0 25 0 -4 -15z m-2324 -31 c22 -11 45 -14 75 -10 34 4
45 2 49 -9 8 -21 -14 -45 -41 -45 -13 0 -25 -5 -27 -10 -2 -6 -17 -12 -33 -13
-17 -1 -35 -9 -42 -17 -10 -12 -15 -13 -32 -3 -17 11 -22 10 -31 -7 -6 -11
-20 -20 -31 -20 -28 0 -61 19 -53 31 3 6 -4 8 -18 4 -38 -9 -83 8 -86 33 -3
17 2 22 21 22 13 0 27 3 30 7 10 10 109 43 129 43 11 0 15 -5 12 -15 -4 -8 -1
-15 5 -15 6 0 11 9 11 20 0 24 20 26 62 4z m2448 5 c-8 -5 -27 -16 -42 -25
-24 -12 -28 -13 -28 0 0 14 40 34 70 35 13 1 13 0 0 -10z m-2006 -18 c9 -14
-22 -34 -41 -26 -17 6 -17 7 1 21 23 16 33 18 40 5z m352 -2 c9 -16 -12 -33
-31 -25 -14 5 -15 9 -5 21 15 18 26 19 36 4z m1767 -2 c7 4 6 -1 -2 -10 -9
-11 -21 -15 -34 -11 -11 3 -17 2 -14 -2 3 -5 -7 -10 -21 -11 -24 -1 -23 1 13
23 22 13 42 19 43 14 2 -6 9 -7 15 -3z m-1867 -26 c27 -11 58 -19 69 -18 14 1
22 -7 30 -28 16 -48 21 -52 92 -75 36 -12 88 -32 114 -46 27 -13 57 -24 67
-24 33 0 45 -25 37 -78 l-6 -49 73 -25 c71 -25 164 -48 194 -48 28 0 4 19 -32
26 -34 6 -35 7 -30 48 3 22 5 42 5 44 1 1 26 2 57 2 39 0 74 -8 114 -26 53
-23 60 -24 81 -11 30 18 117 40 130 32 16 -11 10 -24 -21 -40 -16 -9 -30 -22
-30 -30 0 -21 -43 -29 -83 -16 -19 6 -41 9 -50 5 -23 -8 -41 -75 -24 -90 6 -7
116 -49 242 -93 127 -45 246 -88 265 -96 30 -12 424 -155 597 -216 67 -24 83
-24 83 1 0 13 9 22 26 26 21 5 31 0 54 -25 16 -17 37 -31 47 -31 17 0 144 -47
228 -84 17 -8 73 -26 125 -41 104 -30 150 -50 150 -65 0 -12 -5 -12 -28 -1
-42 21 -73 33 -167 61 -95 29 -100 30 -113 13 -13 -17 -14 -16 -7 5 4 16 2 22
-9 22 -8 0 -21 3 -30 6 -9 3 -16 1 -16 -4 0 -6 9 -14 21 -17 11 -4 18 -9 16
-11 -3 -3 -87 23 -188 57 -101 34 -328 110 -504 169 -292 98 -1032 357 -1413
493 -85 30 -159 60 -164 65 -8 8 -7 16 2 27 7 8 10 19 6 22 -10 10 -76 -28
-76 -44 0 -19 26 -29 350 -142 157 -55 437 -154 622 -220 186 -67 343 -121
348 -121 6 0 21 -6 33 -14 12 -8 141 -58 287 -111 146 -53 324 -118 395 -145
72 -26 196 -72 278 -101 81 -29 147 -56 147 -60 0 -4 -19 -1 -42 6 -97 31
-330 113 -335 119 -4 3 -13 6 -21 6 -8 0 -164 51 -346 114 -439 152 -836 292
-1614 570 -101 36 -188 63 -193 60 -5 -3 -9 -35 -9 -72 0 -43 -5 -75 -15 -88
-9 -14 -13 -38 -10 -75 2 -30 4 -59 5 -65 0 -6 10 -16 23 -22 15 -7 17 -11 6
-11 -8 -1 -26 -12 -39 -26 -44 -47 -114 -60 -320 -59 -157 0 -190 3 -215 18
l-30 17 30 -5 c93 -17 218 -27 270 -21 81 8 214 42 242 61 43 28 14 32 -59 9
-40 -12 -92 -26 -115 -30 -40 -6 -41 -5 -48 23 -8 39 -31 58 -75 64 -50 7 -85
-8 -106 -48 -15 -27 -25 -34 -49 -34 -59 0 -60 15 -4 55 74 53 115 68 172 62
45 -4 49 -2 63 25 9 17 13 40 10 52 -9 35 8 52 38 38 14 -6 26 -18 26 -27 0
-10 10 -15 35 -15 28 0 33 3 28 18 -3 9 -17 26 -30 38 -22 19 -24 24 -14 60 6
24 7 54 2 77 -8 33 -7 37 8 32 9 -3 25 1 35 8 17 13 17 16 3 38 -9 13 -18 40
-22 60 -6 31 -3 38 19 52 13 9 37 29 51 43 26 26 29 27 115 21 55 -3 106 -13
136 -26z m1674 9 c0 -5 -5 -10 -11 -10 -5 0 -7 5 -4 10 3 6 8 10 11 10 2 0 4
-4 4 -10z m304 -31 c-3 -5 -10 -7 -15 -3 -5 3 -7 10 -3 15 3 5 10 7 15 3 5 -3
7 -10 3 -15z m470 -55 c67 -23 52 -27 -19 -5 -33 11 -53 20 -44 20 8 1 37 -6
63 -15z m-2889 -24 c8 -16 15 -33 15 -38 0 -16 -68 -82 -84 -82 -26 0 -19 19
14 38 28 16 30 20 26 65 -5 54 6 61 29 17z m3015 -15 c19 -7 28 -13 20 -13 -8
0 -31 6 -50 13 -19 7 -28 13 -20 13 8 0 31 -6 50 -13z m-3990 -25 c0 -5 -2
-10 -4 -10 -3 0 -8 5 -11 10 -3 6 -1 10 4 10 6 0 11 -4 11 -10z m890 0 c0 -5
-4 -10 -10 -10 -5 0 -10 5 -10 10 0 6 5 10 10 10 6 0 10 -4 10 -10z m3284 -31
c5 -4 -8 -3 -30 2 -21 6 -41 13 -44 16 -9 9 65 -9 74 -18z m-3774 -9 c0 -5 -4
-10 -10 -10 -5 0 -10 5 -10 10 0 6 5 10 10 10 6 0 10 -4 10 -10z m440 -4 c-6
-8 -18 -12 -26 -9 -19 7 -7 23 18 23 17 0 18 -3 8 -14z m2060 -91 c0 -8 -7
-15 -16 -15 -14 0 -14 3 -4 15 7 8 14 15 16 15 2 0 4 -7 4 -15z m31 -28 c-16
-16 -26 0 -10 19 9 11 15 12 17 4 2 -6 -1 -17 -7 -23z m69 -7 c0 -5 -4 -10
-10 -10 -5 0 -10 5 -10 10 0 6 5 10 10 10 6 0 10 -4 10 -10z m59 -9 c8 -5 9
-11 3 -15 -13 -8 -42 3 -42 15 0 11 21 11 39 0z m-319 -97 c166 -59 272 -112
242 -122 -12 -4 -209 61 -254 84 -44 23 -164 64 -184 64 -11 0 -30 -7 -42 -16
-25 -17 -63 -13 -119 13 -41 19 -34 33 15 33 25 0 43 7 54 20 16 18 19 19 60
4 24 -9 126 -45 228 -80z m-2732 54 c-7 -19 -38 -22 -38 -4 0 10 9 16 21 16
12 0 19 -5 17 -12z m3362 -68 c0 -5 -5 -10 -11 -10 -5 0 -7 5 -4 10 3 6 8 10
11 10 2 0 4 -4 4 -10z m47 -16 c-3 -3 -12 -4 -19 -1 -8 3 -5 6 6 6 11 1 17 -2
13 -5z m53 -14 c0 -5 -7 -10 -16 -10 -8 0 -12 5 -9 10 3 6 10 10 16 10 5 0 9
-4 9 -10z m-830 -10 c0 -5 -7 -7 -15 -4 -8 4 -15 8 -15 10 0 2 7 4 15 4 8 0
15 -4 15 -10z m890 -10 c13 -8 13 -10 -2 -10 -9 0 -20 5 -23 10 -8 13 5 13 25
0z m60 -20 c0 -5 -7 -10 -15 -10 -8 0 -15 5 -15 10 0 6 7 10 15 10 8 0 15 -4
15 -10z m-2197 -46 c123 -36 207 -68 207 -79 0 -3 -10 -9 -22 -14 -15 -5 -39
-1 -72 12 -28 10 -87 32 -131 47 -93 31 -125 47 -125 60 0 15 11 13 143 -26z
m2244 30 c-3 -3 -12 -4 -19 -1 -8 3 -5 6 6 6 11 1 17 -2 13 -5z m-3087 -14 c0
-16 -434 -221 -466 -219 -14 0 -15 2 -4 6 8 3 70 32 138 65 79 38 122 64 122
74 0 12 6 15 24 10 15 -4 28 0 36 9 7 8 20 15 29 15 9 1 36 12 61 25 50 27 60
29 60 15z m-285 -50 c-3 -5 -12 -10 -18 -10 -7 0 -6 4 3 10 19 12 23 12 15 0z
m2840 0 l20 -9 -20 0 c-11 0 -27 4 -35 9 -13 9 -13 10 0 9 8 0 24 -4 35 -9z
m725 0 c0 -5 -5 -10 -11 -10 -5 0 -7 5 -4 10 3 6 8 10 11 10 2 0 4 -4 4 -10z
m-5100 -10 c0 -5 -2 -10 -4 -10 -3 0 -8 5 -11 10 -3 6 -1 10 4 10 6 0 11 -4
11 -10z m1465 -1 c12 -19 -5 -23 -22 -6 -16 16 -16 17 -1 17 9 0 20 -5 23 -11z
m3685 -4 c0 -8 -4 -15 -9 -15 -13 0 -22 16 -14 24 11 11 23 6 23 -9z m-2487
-24 c40 -16 82 -32 94 -36 12 -3 25 -15 28 -25 10 -32 43 -34 84 -6 20 14 42
26 48 26 6 0 35 -15 65 -32 100 -61 135 -73 172 -60 18 7 45 12 61 12 l29 0
-42 -43 c-23 -23 -42 -48 -42 -54 0 -6 16 -17 36 -23 32 -11 41 -10 74 9 l38
21 96 -34 c53 -19 112 -46 131 -60 18 -14 38 -26 44 -26 5 0 13 -4 16 -10 4
-6 -6 -7 -26 -3 -27 5 -31 3 -27 -13 4 -24 59 -31 77 -10 8 10 18 12 29 7 53
-26 111 -49 141 -56 20 -4 35 -14 38 -26 3 -10 11 -19 18 -19 7 0 15 -5 17
-10 2 -6 34 -22 72 -36 38 -13 77 -30 87 -37 16 -12 12 -13 -29 -14 -26 0 -66
-5 -89 -12 -35 -9 -43 -16 -43 -35 0 -25 32 -60 68 -73 22 -8 21 -10 -21 -44
-52 -44 -71 -40 -121 28 -53 72 -62 112 -36 170 11 26 28 56 38 66 16 18 16
19 -7 16 -17 -3 -32 -18 -49 -49 -33 -62 -27 -124 18 -188 22 -31 25 -40 11
-28 -29 26 -61 79 -77 129 l-14 42 5 -44 c8 -58 49 -133 98 -178 l39 -35 -23
-23 c-13 -12 -205 -158 -426 -324 -222 -166 -403 -305 -403 -310 0 -4 -10 -6
-23 -4 -35 7 -112 -72 -127 -128 -18 -65 -150 -179 -207 -179 -20 0 -305 140
-356 176 -17 11 -13 15 42 34 33 13 58 26 56 30 -5 9 -133 -42 -144 -57 -26
-37 -107 -56 -118 -28 -5 14 -8 14 -24 -1 -11 -9 -19 -25 -19 -34 0 -28 -11
-31 -44 -11 -119 71 -567 294 -645 320 -35 12 -80 30 -100 40 -76 38 -399 205
-466 242 -38 21 -104 56 -145 77 -41 22 -76 46 -79 53 -3 9 5 8 23 -5 25 -16
29 -16 52 -2 16 12 35 14 63 10 22 -3 47 -1 59 5 18 10 45 -1 184 -71 90 -45
255 -128 368 -184 113 -55 243 -124 289 -153 46 -28 91 -51 99 -51 8 0 40 -13
71 -29 132 -68 328 -161 339 -161 16 0 15 17 0 27 -7 4 -209 107 -448 229
-252 128 -435 227 -436 235 -1 8 1 9 3 2 2 -7 11 -9 19 -6 8 3 14 -1 14 -8 0
-7 3 -9 7 -6 3 4 12 2 20 -4 10 -9 13 -8 13 5 0 9 6 16 14 16 17 0 25 20 28
77 1 23 5 40 9 38 4 -3 12 2 19 10 7 8 20 15 29 15 21 0 83 59 76 71 -6 9 33
-6 105 -42 62 -30 351 -166 555 -260 133 -62 180 -79 215 -79 32 0 56 -7 82
-25 20 -14 44 -25 53 -25 21 0 68 24 83 43 9 10 26 13 55 10 50 -5 39 -11 340
191 343 231 447 306 447 325 0 10 -3 12 -8 5 -12 -17 -178 -134 -460 -322
-254 -170 -266 -176 -315 -177 -39 -1 -62 -8 -90 -28 -41 -28 -61 -26 -110 8
-12 8 -41 15 -64 15 -46 0 -122 32 -435 182 -204 98 -591 288 -597 294 -2 2 1
10 7 17 9 10 7 17 -8 30 -11 9 -20 23 -20 31 0 22 57 63 169 120 43 23 34 30
-12 11 -21 -8 -37 -13 -37 -10 0 3 -9 1 -20 -5 -11 -6 -20 -7 -20 -3 0 5 12
14 28 20 29 13 114 60 202 112 30 19 66 37 79 42 23 9 23 10 6 29 -15 17 -16
20 -3 20 9 0 19 7 22 16 4 12 1 14 -14 9 -11 -4 -20 -2 -20 4 0 6 5 11 11 11
16 0 49 39 50 59 1 9 2 21 4 26 1 6 3 20 3 33 1 13 6 21 11 18 5 -3 14 8 20
24 5 17 16 30 24 30 8 0 20 7 27 16 18 20 -49 -6 -217 -87 -357 -172 -436
-209 -439 -207 -1 2 27 19 64 38 37 19 141 73 232 121 91 47 218 113 282 146
l116 60 19 -23 c60 -77 546 -46 633 40 32 32 47 32 133 -3z m-463 9 c0 -5 -19
-9 -42 -9 l-43 2 35 7 c19 4 38 8 43 9 4 0 7 -3 7 -9z m-1090 -36 c0 -17 -22
-14 -28 4 -2 7 3 12 12 12 9 0 16 -7 16 -16z m205 -4 c11 -17 -5 -32 -21 -19
-8 6 -14 15 -14 20 0 12 27 11 35 -1z m3845 -124 c0 -3 -4 -8 -10 -11 -5 -3
-10 -1 -10 4 0 6 5 11 10 11 6 0 10 -2 10 -4z m-4590 -16 c0 -5 -5 -10 -11
-10 -5 0 -7 5 -4 10 3 6 8 10 11 10 2 0 4 -4 4 -10z m4560 -19 c0 -14 -18 -23
-30 -16 -6 4 -8 11 -5 16 8 12 35 12 35 0z m-4530 -21 c0 -5 -4 -10 -10 -10
-5 0 -10 5 -10 10 0 6 5 10 10 10 6 0 10 -4 10 -10z m568 -8 c5 -17 -47 -27
-61 -12 -10 10 -8 12 6 7 11 -4 20 -1 24 9 6 16 25 14 31 -4z m-113 -61 c-12
-12 -381 -186 -415 -196 -45 -13 -17 2 109 59 69 32 137 66 152 77 15 10 33
19 41 19 7 0 33 11 58 25 47 25 71 32 55 16z m-175 -21 c0 -5 -5 -10 -11 -10
-5 0 -7 5 -4 10 3 6 8 10 11 10 2 0 4 -4 4 -10z m-260 -80 c0 -5 -4 -10 -10
-10 -5 0 -10 5 -10 10 0 6 5 10 10 10 6 0 10 -4 10 -10z m536 -15 c-11 -8 -25
-15 -30 -15 -6 1 0 7 14 15 32 19 40 18 16 0z m3864 5 c0 -5 -4 -10 -9 -10 -6
0 -13 5 -16 10 -3 6 1 10 9 10 9 0 16 -4 16 -10z m46 -15 c10 -8 14 -15 7 -15
-19 0 -43 11 -43 21 0 13 14 11 36 -6z m-4421 -5 c3 -6 -1 -7 -9 -4 -18 7 -21
14 -7 14 6 0 13 -4 16 -10z m4510 -30 c3 -5 -9 -5 -27 1 -18 5 -34 9 -35 9 -2
0 -3 4 -3 9 0 11 57 -6 65 -19z m-4070 10 c-3 -5 -12 -10 -18 -10 -7 0 -6 4 3
10 19 12 23 12 15 0z m4105 -21 c0 -5 5 -7 10 -4 6 3 10 1 10 -4 0 -13 -3 -13
-24 -5 -18 7 -22 24 -6 24 6 0 10 -5 10 -11z m-4650 -35 c0 -14 -3 -14 -15 -4
-8 7 -15 14 -15 16 0 2 7 4 15 4 8 0 15 -7 15 -16z m4730 12 c0 -11 -19 -15
-25 -6 -3 5 1 10 9 10 9 0 16 -2 16 -4z m-110 -50 c0 -3 -4 -8 -10 -11 -5 -3
-10 -1 -10 4 0 6 5 11 10 11 6 0 10 -2 10 -4z m-4684 -28 c-10 -6 -20 -7 -24
-3 -9 8 20 25 31 18 5 -3 2 -10 -7 -15z m3674 7 c11 -13 8 -15 -19 -15 -34 0
-42 -15 -12 -25 11 -3 25 -12 32 -21 10 -12 8 -19 -10 -38 -27 -28 -61 -40
-61 -21 0 7 7 18 15 25 20 17 19 49 -2 57 -30 10 -42 24 -36 39 7 19 77 18 93
-1z m-3335 -37 c68 -112 57 -220 -26 -261 -25 -11 -35 -13 -41 -4 -4 6 -10 8
-14 5 -4 -4 -15 -3 -25 3 -18 9 -18 11 3 54 12 25 25 45 30 45 13 0 58 74 58
96 0 12 -9 33 -20 47 -25 31 -25 47 -2 47 10 0 27 -15 37 -32z m3409 18 c-7
-19 -34 -29 -34 -12 0 16 10 26 26 26 8 0 11 -6 8 -14z m56 -24 c0 -12 -119
-112 -132 -112 -14 0 104 117 120 119 6 0 12 -3 12 -7z m-4870 -22 c0 -5 -9
-10 -20 -10 -11 0 -20 5 -20 10 0 6 9 10 20 10 11 0 20 -4 20 -10z m-100 -35
c0 -9 -6 -12 -15 -9 -8 4 -15 10 -15 15 0 5 7 9 15 9 8 0 15 -7 15 -15z m4698
-12 c-10 -2 -28 -2 -40 0 -13 2 -5 4 17 4 22 1 32 -1 23 -4z m-4200 -25 c-5
-15 -23 -11 -26 6 -2 11 2 14 13 10 9 -4 14 -11 13 -16z m4516 -11 c24 -18 17
-51 -12 -55 -21 -3 -22 -1 -13 17 16 29 15 31 -29 31 -28 0 -40 -4 -40 -14 0
-8 6 -17 13 -19 6 -3 3 -6 -8 -6 -34 -1 -48 19 -28 41 19 22 90 25 117 5z
m-4589 -7 c3 -5 2 -10 -4 -10 -5 0 -13 5 -16 10 -3 6 -2 10 4 10 5 0 13 -4 16
-10z m969 1 c7 -11 -38 -31 -72 -31 -27 0 -26 0 8 19 40 21 57 25 64 12z
m4006 -1 c0 -5 -4 -10 -10 -10 -5 0 -10 5 -10 10 0 6 5 10 10 10 6 0 10 -4 10
-10z m-7413 -6 c-3 -3 -12 -4 -19 -1 -8 3 -5 6 6 6 11 1 17 -2 13 -5z m1348
-14 c3 -5 -1 -10 -9 -10 -9 0 -16 5 -16 10 0 6 4 10 9 10 6 0 13 -4 16 -10z
m2655 0 c0 -5 -4 -10 -10 -10 -5 0 -10 5 -10 10 0 6 5 10 10 10 6 0 10 -4 10
-10z m-4110 -24 c0 -2 -9 -6 -20 -9 -11 -3 -18 -1 -14 4 5 9 34 13 34 5z
m7273 -73 c37 -42 65 -79 61 -82 -3 -3 -9 1 -13 8 -7 11 -19 11 -57 3 -43 -9
-61 -10 -121 -3 -25 2 -14 58 17 88 17 15 30 36 30 45 0 10 3 18 8 17 4 0 37
-35 75 -76z m-4099 -1 c7 -11 -6 -27 -26 -35 -21 -8 -22 -3 -6 23 14 21 24 25
32 12z m3881 -32 c-17 -19 -85 -29 -85 -12 0 7 92 40 99 35 2 -2 -4 -12 -14
-23z m318 -6 c4 -23 3 -24 -17 -11 -28 19 -34 47 -8 40 11 -3 22 -16 25 -29z
m54 30 c-3 -3 -12 -4 -19 -1 -8 3 -5 6 6 6 11 1 17 -2 13 -5z m273 -14 c0 -5
-5 -10 -11 -10 -5 0 -7 5 -4 10 3 6 8 10 11 10 2 0 4 -4 4 -10z m-1080 -20 c0
-13 -55 -61 -182 -156 -101 -76 -241 -183 -313 -238 -316 -243 -320 -246 -327
-228 -4 9 -7 20 -7 24 -1 11 805 617 822 618 4 0 7 -9 7 -20z m-2397 -10 c-3
-11 -9 -17 -15 -14 -5 3 -4 12 3 20 16 19 18 18 12 -6z m3442 -11 c-8 -12 -35
-12 -35 0 0 11 22 20 33 14 4 -2 5 -9 2 -14z m-5835 1 c0 -5 -4 -10 -10 -10
-5 0 -10 5 -10 10 0 6 5 10 10 10 6 0 10 -4 10 -10z m6391 -26 c9 -11 9 -14 0
-14 -19 0 -71 29 -71 40 0 12 56 -8 71 -26z m-451 16 c0 -5 -7 -10 -15 -10 -8
0 -15 5 -15 10 0 6 7 10 15 10 8 0 15 -4 15 -10z m-970 -4 c0 -2 -28 -23 -62
-46 -121 -84 -450 -337 -758 -583 -41 -33 -105 -90 -142 -126 -37 -35 -71 -62
-75 -58 -10 10 102 115 228 214 57 45 185 146 284 224 329 259 525 399 525
375z m1025 -16 c3 -5 -1 -10 -10 -10 -9 0 -13 5 -10 10 3 6 8 10 10 10 2 0 7
-4 10 -10z m-560 -31 c5 -5 -22 -9 -68 -9 -69 0 -88 6 -72 22 9 8 129 -3 140
-13z m934 -12 c8 -10 7 -18 -2 -31 -10 -14 -17 -15 -44 -5 -29 10 -35 8 -57
-16 -22 -24 -27 -25 -40 -12 -13 13 -12 16 10 25 13 7 24 19 24 28 0 11 5 14
18 9 9 -3 31 -9 47 -12 27 -6 29 -5 16 10 -11 15 -11 17 2 17 8 0 20 -6 26
-13z m-7214 -7 c3 -5 1 -10 -4 -10 -6 0 -11 5 -11 10 0 6 2 10 4 10 3 0 8 -4
11 -10z m6525 0 c0 -5 -4 -10 -10 -10 -5 0 -10 5 -10 10 0 6 5 10 10 10 6 0
10 -4 10 -10z m378 -3 l22 -13 -30 -29 -30 -29 -22 24 -22 23 23 18 c27 22 29
22 59 6z m-649 -16 c8 -5 11 -16 8 -24 -4 -10 2 -17 16 -21 15 -4 18 -9 11
-16 -12 -12 -64 9 -64 27 0 14 -39 5 -57 -13 -17 -17 -16 -24 2 -24 8 0 15 7
15 16 0 8 4 13 9 10 13 -8 1 -47 -15 -53 -20 -7 -17 -27 5 -47 15 -14 29 -16
60 -11 35 6 43 3 62 -19 13 -14 29 -26 36 -26 7 0 13 -4 13 -10 0 -5 7 -10 15
-10 8 0 15 -4 15 -8 0 -4 21 -14 48 -21 26 -8 53 -18 60 -24 8 -6 17 -5 27 3
8 7 21 10 29 7 8 -3 17 -1 19 6 3 9 7 9 19 -1 19 -15 51 -5 44 14 -3 8 1 14 8
14 22 0 41 29 28 42 -18 18 -14 27 8 21 39 -10 91 8 139 50 70 61 90 77 98 77
3 0 14 7 24 16 22 20 69 11 95 -17 9 -10 23 -19 31 -19 7 0 13 -4 13 -10 0 -5
-7 -10 -16 -10 -8 0 -13 -4 -10 -9 4 -5 0 -12 -6 -14 -9 -4 -7 -6 3 -6 9 -1
38 -11 64 -22 l48 -21 -109 -107 c-60 -59 -110 -101 -112 -94 -2 8 -16 12 -34
11 -38 -3 -48 -18 -11 -18 25 -1 26 -2 11 -14 -10 -7 -18 -24 -18 -38 0 -22
-26 -123 -36 -140 -10 -15 -34 5 -34 28 0 48 -50 44 -118 -8 -43 -33 -106
-138 -105 -176 0 -21 -15 -32 -34 -25 -10 4 -11 9 -2 19 7 8 10 16 8 17 -29
21 -132 67 -137 62 -16 -16 -190 -175 -217 -198 l-30 -26 23 -16 c24 -17 30
-47 10 -44 -27 3 -38 -2 -38 -16 0 -8 -4 -15 -10 -15 -5 0 -10 5 -10 10 0 17
-38 -12 -51 -39 -7 -16 -13 -21 -16 -13 -3 6 -9 10 -14 6 -5 -3 -12 3 -16 12
-6 16 -7 16 -14 -2 -7 -17 -8 -17 -8 4 -1 18 -18 30 -85 64 l-84 41 -39 -31
c-22 -17 -58 -51 -80 -75 -23 -25 -45 -42 -49 -39 -4 4 -4 1 1 -7 4 -8 2 -17
-6 -23 -9 -6 -10 -11 -3 -14 30 -12 45 -31 38 -47 -8 -22 -24 -22 -25 1 0 9
-3 12 -5 6 -3 -7 -14 -10 -24 -7 -15 4 -20 0 -20 -16 0 -24 -28 -29 -48 -9 -9
9 -15 9 -24 -1 -11 -10 -7 -18 20 -42 29 -26 82 -40 82 -21 0 4 14 15 30 24
17 9 30 24 30 33 0 8 5 15 11 15 6 0 8 7 5 17 -4 10 -4 14 0 10 4 -4 14 -1 22
6 12 9 14 9 9 0 -5 -8 1 -15 18 -19 28 -7 33 -19 9 -28 -24 -9 -42 -6 -19 4
18 7 18 8 3 15 -11 4 -24 1 -34 -10 -15 -15 -15 -17 5 -22 11 -3 21 -10 21
-15 0 -6 -9 -8 -21 -5 -30 8 -49 -2 -49 -27 0 -16 -2 -18 -9 -7 -8 12 -12 12
-25 2 -16 -14 -19 -71 -3 -71 4 0 5 -4 2 -10 -3 -5 0 -10 9 -10 8 0 17 6 19
13 4 7 6 6 6 -5 1 -9 -5 -19 -11 -22 -10 -5 -10 -7 0 -12 15 -7 16 -44 2 -44
-6 0 -22 12 -36 27 -19 20 -27 24 -36 15 -15 -15 -55 -15 -64 0 -4 6 1 17 10
24 10 7 15 17 12 23 -4 5 -2 12 3 16 6 3 8 12 4 20 -4 11 -1 13 11 9 30 -12
16 14 -20 35 -44 26 -53 27 -23 1 13 -10 19 -19 12 -20 -6 0 -15 5 -18 10 -3
6 -16 10 -28 9 -19 0 -17 -3 11 -16 30 -15 42 -32 25 -34 -5 0 -16 -2 -25 -4
-10 -2 -18 2 -18 8 0 7 -9 18 -20 25 -17 10 -25 10 -43 -3 -25 -18 -37 -19
-37 -4 0 5 4 8 9 5 5 -3 15 1 22 10 10 13 10 17 -1 24 -7 4 -19 6 -26 3 -8 -3
-21 3 -30 12 -9 9 -23 14 -30 11 -8 -3 -14 0 -14 6 0 8 -7 6 -17 -4 -13 -14
-14 -20 -4 -32 10 -12 8 -14 -11 -9 -13 2 13 -14 57 -36 77 -39 135 -80 135
-96 0 -4 -26 8 -57 26 -49 27 -96 46 -228 93 -11 4 24 -15 77 -41 92 -46 148
-86 148 -105 0 -5 -5 -6 -11 -2 -6 3 -3 -8 5 -25 l17 -31 -30 0 c-16 0 -39 -9
-52 -19 l-24 -19 23 -25 24 -25 -41 10 c-36 9 -44 8 -62 -8 -12 -10 -18 -26
-15 -37 3 -14 0 -16 -15 -12 -32 11 -58 -4 -67 -38 -7 -26 -14 -33 -43 -38
-47 -7 -59 -16 -59 -45 0 -24 -14 -30 -37 -16 -9 6 4 23 42 57 177 160 170
152 156 169 -17 20 -31 21 -31 1 0 -8 -6 -15 -14 -15 -19 0 -40 26 -27 34 5 4
13 2 16 -4 5 -8 11 -7 21 1 11 9 12 14 3 19 -6 4 -8 13 -4 20 4 7 10 8 14 4 3
-5 21 -17 38 -27 34 -19 56 -14 83 17 10 13 10 19 -1 34 -13 15 -12 16 3 4 14
-11 18 -10 27 7 9 16 8 22 -6 29 -10 5 -24 7 -32 4 -7 -2 -17 2 -22 9 -7 11
-9 9 -9 -7 0 -12 -11 -26 -25 -34 -14 -7 -25 -18 -25 -24 0 -8 -2 -8 -8 0 -4
6 -21 14 -39 17 -25 5 -31 3 -27 -8 4 -10 0 -12 -15 -8 -23 6 -27 19 -8 26 9
4 8 8 -3 16 -8 5 -17 7 -20 3 -7 -10 -38 -7 -72 6 -18 7 -29 8 -33 1 -4 -5
-10 -7 -14 -4 -5 2 -6 -7 -3 -22 3 -18 1 -24 -7 -19 -7 4 -19 -2 -30 -15 -19
-24 -57 -20 -48 5 8 19 -29 28 -44 10 -6 -8 -18 -14 -25 -14 -8 0 -14 -7 -14
-15 0 -8 -4 -15 -10 -15 -5 0 -10 -8 -10 -17 0 -14 -2 -15 -12 -4 -11 10 -9
15 6 27 15 10 17 17 9 25 -14 14 -36 1 -29 -17 3 -8 1 -14 -4 -14 -5 0 -6 -8
-3 -17 5 -12 2 -15 -10 -10 -9 3 -19 2 -22 -2 -3 -5 2 -11 10 -15 23 -9 18
-26 -8 -26 -31 0 -40 10 -24 28 10 13 7 14 -28 8 -22 -4 -53 -14 -69 -22 -37
-18 -35 -18 -28 9 5 21 5 21 -12 5 -19 -19 -29 -22 -39 -11 -4 3 1 12 10 18
14 11 15 16 5 28 -16 19 -41 25 -72 16 -16 -4 -19 -7 -7 -8 24 -1 22 -21 -3
-21 -11 0 -20 5 -20 11 0 5 -10 3 -22 -5 -25 -18 -42 -21 -33 -6 12 20 -12 9
-35 -15 -13 -14 -29 -25 -36 -25 -7 0 -16 -5 -20 -12 -5 -7 -2 -8 7 -3 8 5 11
4 6 -1 -5 -5 -13 -9 -17 -9 -5 0 -16 -9 -25 -20 l-17 -20 7 20 c11 32 11 48
-1 52 -7 2 -11 -4 -10 -14 0 -10 -7 -19 -19 -21 -11 -3 -25 -12 -32 -21 -17
-22 -16 -6 2 29 9 16 29 37 46 46 17 8 28 18 25 22 -4 3 -20 -4 -36 -16 -32
-24 -40 -27 -40 -13 0 5 19 19 43 30 48 23 61 26 52 11 -7 -12 47 8 110 42 61
32 149 123 175 180 10 23 29 58 41 78 29 44 272 247 387 321 96 62 100 62 132
-1 15 -30 24 -37 49 -37 27 0 30 3 25 20 -4 13 -2 17 5 13 6 -4 11 -14 11 -22
0 -8 5 -14 10 -14 6 0 10 -7 10 -17 0 -9 3 -13 8 -9 7 7 8 16 11 79 1 30 18
35 36 11 9 -13 16 -14 33 -5 12 7 19 17 16 26 -5 11 -1 12 24 3 32 -12 67 -4
57 13 -4 6 -13 8 -21 5 -8 -3 -14 -1 -14 5 0 6 -7 9 -15 5 -32 -12 16 42 115
128 61 53 100 95 100 106 0 11 -14 35 -31 55 -31 35 -31 36 -13 56 16 17 16
22 4 30 -40 25 194 161 282 164 32 1 56 9 80 27 18 14 52 35 76 47 41 21 51
35 75 104 5 13 18 17 59 17 29 0 59 -4 67 -9z m221 -21 c0 -5 -4 -10 -10 -10
-5 0 -10 5 -10 10 0 6 5 10 10 10 6 0 10 -4 10 -10z m-136 -9 c7 -11 -22 -23
-35 -15 -5 3 -7 10 -4 15 8 12 32 12 39 0z m-4549 -11 c-3 -5 -10 -10 -16 -10
-5 0 -9 5 -9 10 0 6 7 10 16 10 8 0 12 -4 9 -10z m5495 6 c0 -3 -4 -8 -10 -11
-5 -3 -10 -1 -10 4 0 6 5 11 10 11 6 0 10 -2 10 -4z m120 -10 c0 -11 -19 -15
-25 -6 -3 5 1 10 9 10 9 0 16 -2 16 -4z m-4260 -16 c0 -5 -4 -10 -10 -10 -5 0
-10 5 -10 10 0 6 5 10 10 10 6 0 10 -4 10 -10z m-30 -20 c0 -5 -2 -10 -4 -10
-3 0 -8 5 -11 10 -3 6 -1 10 4 10 6 0 11 -4 11 -10z m2660 -4 c0 -18 -171
-165 -347 -298 -7 -6 -19 -6 -28 -1 -12 7 25 42 172 160 104 84 191 152 196
152 4 1 7 -5 7 -13z m640 -1 c0 -8 -4 -15 -10 -15 -5 0 -10 7 -10 15 0 8 5 15
10 15 6 0 10 -7 10 -15z m104 0 c11 -8 17 -17 14 -21 -8 -8 -48 14 -48 26 0
14 12 12 34 -5z m996 -6 c0 -5 -7 -9 -15 -9 -15 0 -20 12 -9 23 8 8 24 -1 24
-14z m-1260 1 c0 -5 -4 -10 -10 -10 -5 0 -10 5 -10 10 0 6 5 10 10 10 6 0 10
-4 10 -10z m-40 -31 c0 -4 -7 -6 -15 -3 -8 4 -15 10 -15 15 0 4 7 6 15 3 8 -4
15 -10 15 -15z m370 -10 c0 -4 -7 -6 -15 -3 -8 4 -15 10 -15 15 0 4 7 6 15 3
8 -4 15 -10 15 -15z m90 -4 c0 -8 -4 -15 -10 -15 -5 0 -7 7 -4 15 4 8 8 15 10
15 2 0 4 -7 4 -15z m-7158 -12 c22 -19 24 -53 3 -53 -9 0 -12 6 -8 15 3 9 -3
25 -12 35 -22 24 -9 27 17 3z m1016 -1 c6 -18 -15 -14 -22 4 -4 10 -1 14 6 12
6 -2 14 -10 16 -16z m1016 3 c-4 -8 -1 -22 6 -30 11 -13 10 -14 -4 -9 -16 6
-22 35 -9 47 10 11 13 8 7 -8z m5096 -15 c0 -5 -2 -10 -4 -10 -3 0 -8 5 -11
10 -3 6 -1 10 4 10 6 0 11 -4 11 -10z m-6170 -4 c0 -3 -4 -8 -10 -11 -5 -3
-10 -1 -10 4 0 6 5 11 10 11 6 0 10 -2 10 -4z m6115 -16 c-3 -5 -11 -10 -16
-10 -6 0 -7 5 -4 10 3 6 11 10 16 10 6 0 7 -4 4 -10z m-125 -50 c0 -5 -5 -10
-11 -10 -5 0 -7 5 -4 10 3 6 8 10 11 10 2 0 4 -4 4 -10z m960 -37 c-1 -16 -29
-45 -40 -41 -6 2 -5 11 5 26 16 21 35 30 35 15z m-7180 -17 c0 -3 -4 -8 -10
-11 -5 -3 -10 -1 -10 4 0 6 5 11 10 11 6 0 10 -2 10 -4z m198 -21 c-3 -3 -9 2
-12 12 -6 14 -5 15 5 6 7 -7 10 -15 7 -18z m7042 -20 c-7 -9 -15 -13 -17 -11
-7 7 7 26 19 26 6 0 6 -6 -2 -15z m-7105 -5 c3 -5 1 -10 -4 -10 -6 0 -11 5
-11 10 0 6 2 10 4 10 3 0 8 -4 11 -10z m-211 -8 c3 -5 -1 -9 -9 -9 -8 0 -15 4
-15 9 0 4 4 8 9 8 6 0 12 -4 15 -8z m141 -11 c3 -5 1 -12 -5 -16 -5 -3 -10 1
-10 9 0 18 6 21 15 7z m7259 -6 c-4 -8 -11 -15 -16 -15 -6 0 -5 6 2 15 7 8 14
15 16 15 2 0 1 -7 -2 -15z m-7474 -15 c0 -5 -8 -10 -17 -10 -15 0 -16 2 -3 10
19 12 20 12 20 0z m130 -20 c0 -5 -7 -7 -15 -4 -8 4 -15 8 -15 10 0 2 7 4 15
4 8 0 15 -4 15 -10z m2295 -10 c7 -12 -2 -12 -30 0 -19 8 -19 9 2 9 12 1 25
-3 28 -9z m235 -124 c0 -8 -28 0 -41 11 -8 6 -50 26 -93 45 -44 19 -82 40 -84
46 -2 7 46 -13 107 -43 61 -30 111 -57 111 -59z m2590 104 c0 -11 -59 -50 -75
-50 -13 1 52 60 65 60 6 0 10 -5 10 -10z m-3449 -63 c-10 -9 -11 -8 -5 6 3 10
9 15 12 12 3 -3 0 -11 -7 -18z m-31 9 c0 -2 -7 -9 -15 -16 -13 -11 -14 -10 -9
4 5 14 24 23 24 12z m82 -33 c-7 -3 -19 -11 -27 -20 -8 -8 -15 -10 -15 -5 0
12 43 42 50 35 3 -3 -1 -8 -8 -10z m-42 3 c0 -3 -4 -8 -10 -11 -5 -3 -10 -1
-10 4 0 6 5 11 10 11 6 0 10 -2 10 -4z m184 -66 c4 -4 -2 -11 -13 -15 -12 -3
-18 -11 -15 -17 12 -19 -19 -27 -35 -9 -9 10 -24 22 -35 28 -12 7 -15 13 -7
17 6 4 11 4 11 -1 0 -4 16 -9 35 -10 20 -2 35 2 35 8 0 6 -9 8 -21 4 -13 -5
-19 -3 -15 3 11 18 -26 23 -50 7 -13 -8 -25 -11 -28 -6 -3 4 6 13 21 20 14 6
23 14 20 17 -3 3 -20 -2 -39 -12 l-33 -17 25 25 25 25 55 -30 c30 -16 59 -33
64 -37z m-418 39 c3 -6 1 -16 -6 -22 -10 -9 -11 -9 -5 2 4 8 2 17 -6 22 -9 6
-10 9 -2 9 6 0 15 -5 19 -11z m-1836 -31 c0 -4 -6 -8 -14 -8 -8 0 -17 4 -20 8
-2 4 4 8 15 8 10 0 19 -4 19 -8z m1909 -10 c45 -24 44 -31 -2 -54 l-32 -15 25
20 c32 26 19 39 -17 16 l-28 -18 18 21 c20 22 14 47 -10 38 -8 -3 -11 -1 -8 4
8 13 7 13 54 -12z m851 -3 c-38 -28 -46 -30 -56 -13 -5 7 -3 8 6 3 7 -4 15 -4
19 1 8 12 43 33 55 33 6 1 -5 -10 -24 -24z m607 -62 c123 -64 205 -113 191
-113 -4 0 -27 11 -50 23 -24 13 -92 50 -153 82 -104 55 -138 75 -122 75 4 0
64 -30 134 -67z m-1095 22 c-15 -13 -29 -21 -32 -18 -3 2 5 13 17 23 12 9 19
21 15 24 -3 4 1 4 10 1 15 -6 13 -10 -10 -30z m-2257 15 c-3 -5 -12 -10 -18
-10 -7 0 -6 4 3 10 19 12 23 12 15 0z m2017 -78 c-22 -15 -32 -39 -10 -26 7 4
8 3 4 -4 -5 -9 -12 -8 -26 0 -19 12 -19 13 5 28 14 8 25 18 25 22 0 13 -10 9
-43 -14 -26 -19 -30 -19 -24 -4 6 14 3 16 -16 11 -19 -6 -18 -3 8 19 36 30 25
34 -16 5 -16 -11 -29 -15 -29 -9 0 6 8 14 18 17 9 4 21 13 25 20 6 10 18 6 54
-19 46 -31 46 -32 25 -46z m278 53 c-14 -17 0 -21 17 -4 8 8 17 8 29 1 16 -9
16 -11 -4 -23 -30 -19 -28 -31 3 -17 14 6 25 15 25 19 0 5 14 0 30 -9 17 -9
28 -23 25 -29 -2 -7 0 -13 5 -13 6 0 10 5 10 11 0 5 5 7 10 4 6 -4 7 -11 4
-17 -4 -6 -2 -8 4 -4 11 7 62 -13 62 -24 0 -4 -10 -15 -22 -23 -13 -9 -17 -16
-10 -16 6 -1 20 7 30 17 17 17 19 17 48 1 16 -10 52 -30 79 -44 79 -43 80 -45
48 -71 -15 -12 -32 -20 -37 -17 -5 3 2 15 15 25 l24 20 -32 -18 c-26 -14 -34
-15 -47 -5 -9 7 -13 18 -9 24 4 6 0 8 -10 4 -12 -4 -14 -2 -10 11 6 15 5 15
-10 3 -9 -7 -17 -9 -17 -3 0 5 10 17 23 26 22 16 22 16 -5 4 -16 -6 -28 -15
-28 -20 0 -4 -4 -8 -10 -8 -20 0 -10 20 18 34 15 8 23 15 19 16 -5 0 -22 -8
-37 -17 -28 -16 -30 -16 -63 7 -23 16 -33 29 -29 39 5 14 3 14 -11 3 -21 -18
-40 -5 -33 22 5 20 4 20 -9 3 -8 -11 -16 -14 -19 -8 -4 6 2 16 14 23 11 7 20
17 20 21 0 5 -14 -1 -31 -13 -16 -12 -33 -19 -37 -15 -4 4 -2 10 4 12 6 2 20
11 30 19 17 13 15 13 -13 0 -17 -9 -39 -13 -48 -10 -14 6 -13 10 7 32 23 26 8
22 -26 -7 -18 -15 -19 -15 -13 2 6 15 3 17 -16 12 -19 -6 -18 -3 8 18 32 27
46 28 25 2z m630 10 c0 -8 -4 -15 -10 -15 -5 0 -10 7 -10 15 0 8 5 15 10 15 6
0 10 -7 10 -15z m4190 5 c8 -5 11 -10 5 -10 -5 0 -17 5 -25 10 -8 5 -10 10 -5
10 6 0 17 -5 25 -10z m-4940 -52 c0 -11 -22 -10 -59 3 -34 12 -40 26 -13 31
18 4 72 -22 72 -34z m5000 27 c14 -8 21 -14 15 -14 -5 0 -21 6 -35 14 -14 8
-20 14 -15 14 6 0 21 -6 35 -14z m-520 -51 c14 -15 12 -16 -12 -10 -73 16 -84
16 -45 -1 21 -9 36 -21 34 -27 -4 -11 -11 -11 -71 1 -24 5 -28 3 -23 -10 4
-11 2 -14 -9 -10 -7 3 -14 1 -14 -4 0 -5 27 -22 60 -36 33 -15 60 -31 60 -37
0 -5 12 -15 27 -22 30 -15 42 -38 20 -38 -26 0 -99 37 -88 44 6 4 16 4 21 1 6
-3 10 1 10 9 0 18 -5 18 -35 7 -12 -5 -34 -2 -55 7 l-35 14 19 -21 c16 -18 17
-21 3 -21 -9 0 -18 4 -21 9 -11 17 -56 19 -68 3 -11 -13 -11 -14 0 -8 14 8 82
-22 82 -35 0 -4 -24 -1 -52 7 -29 7 -54 14 -55 14 -1 0 0 -7 3 -15 5 -11 2
-13 -10 -9 -9 3 -16 9 -16 12 0 4 44 51 98 105 89 90 100 98 127 92 16 -3 37
-13 45 -21z m460 -4 c0 -5 -7 -10 -16 -10 -8 0 -12 5 -9 10 3 6 10 10 16 10 5
0 9 -4 9 -10z m-4795 -132 c260 -151 290 -168 305 -178 8 -6 24 -14 36 -19 12
-5 46 -26 77 -45 31 -20 58 -36 61 -36 3 0 30 -16 60 -35 30 -19 58 -35 62
-35 4 0 22 -11 41 -26 18 -14 33 -22 33 -18 0 3 7 1 15 -6 21 -17 76 -49 98
-56 9 -4 17 -10 17 -15 0 -5 4 -9 10 -9 5 0 41 -20 79 -45 38 -25 72 -45 76
-45 3 0 31 -16 61 -35 30 -19 59 -35 64 -35 19 0 10 -21 -15 -32 -14 -6 -25
-15 -25 -20 0 -14 13 -9 37 14 21 20 26 21 45 9 12 -7 42 -25 67 -38 25 -14
53 -31 61 -37 8 -7 32 -21 53 -31 20 -11 37 -23 37 -26 0 -4 -13 -12 -30 -18
-16 -5 -30 -14 -30 -20 0 -5 -9 -7 -20 -4 -11 3 -20 9 -20 14 0 5 -6 9 -14 9
-23 0 -29 19 -9 27 18 7 33 22 33 36 0 15 -22 6 -46 -20 -19 -20 -27 -24 -36
-15 -9 9 -7 16 10 28 12 8 22 20 22 25 0 6 -13 1 -29 -10 -31 -22 -51 -27 -51
-12 0 5 11 12 25 15 14 4 25 11 25 17 0 13 -53 2 -58 -12 -5 -12 -32 -12 -32
1 0 6 11 16 25 22 14 6 25 17 25 25 0 20 -14 16 -42 -12 l-25 -25 -69 42 c-38
22 -71 43 -74 45 -3 3 6 13 19 24 13 11 22 22 19 24 -2 3 -14 -4 -26 -15 -23
-21 -47 -26 -57 -11 -3 6 -18 16 -33 24 -121 63 -129 71 -87 87 14 5 25 14 25
21 0 6 -16 1 -36 -11 -19 -12 -38 -19 -42 -15 -7 6 19 30 42 38 6 2 8 8 4 12
-3 3 -20 -3 -37 -16 -37 -27 -57 -16 -21 11 14 11 19 20 13 20 -7 0 -21 -8
-32 -19 -12 -12 -23 -16 -32 -10 -15 9 -12 13 31 39 8 4 12 11 9 14 -3 4 -17
-3 -32 -14 -26 -20 -57 -27 -57 -12 0 5 11 14 25 20 14 6 25 16 25 22 0 15
-20 12 -26 -5 -9 -23 -41 -27 -69 -9 -32 21 -31 28 1 43 15 6 24 15 20 18 -3
4 -20 -3 -36 -16 l-31 -22 -28 21 c-16 11 -34 20 -40 20 -6 0 -11 7 -11 15 0
8 -6 12 -12 10 -7 -3 -24 4 -38 15 -24 19 -24 21 -7 34 11 8 25 12 33 9 8 -3
14 -1 14 4 0 16 -33 11 -62 -9 -15 -10 -29 -14 -32 -9 -3 5 6 16 20 26 14 9
23 19 20 22 -3 3 -17 -4 -32 -14 -27 -20 -28 -20 -62 0 l-35 21 22 17 c32 26
25 33 -9 9 -24 -17 -30 -18 -30 -6 0 10 -6 13 -16 9 -9 -3 -20 0 -24 8 -10 15
-4 29 11 29 6 0 7 -4 4 -10 -9 -14 8 -13 23 2 16 16 15 33 -1 19 -8 -6 -17 -8
-20 -4 -4 3 -15 -2 -26 -11 -12 -11 -21 -13 -25 -7 -4 6 7 17 25 26 17 9 28
19 26 22 -3 3 -20 -5 -37 -17 -17 -12 -34 -20 -37 -17 -8 9 7 27 22 27 7 0 15
6 18 14 4 11 -3 10 -27 -5 -20 -12 -41 -17 -51 -13 -16 7 -15 10 11 32 l29 25
-37 -21 c-21 -12 -40 -17 -43 -12 -3 5 9 16 27 24 18 8 27 15 20 15 -7 1 -25
-5 -41 -13 -24 -13 -30 -13 -54 3 -15 10 -24 21 -20 24 10 10 25 8 19 -2 -4
-5 4 -7 16 -3 14 3 19 2 14 -6 -8 -14 -4 -15 18 -6 9 3 16 10 16 15 0 4 -7 6
-15 3 -11 -5 -14 -2 -9 12 6 16 5 17 -7 7 -18 -17 -30 -16 -23 1 5 13 2 13
-20 3 -14 -7 -26 -15 -26 -19 0 -8 -58 20 -65 33 -4 5 5 14 19 21 14 6 26 15
26 20 0 5 -13 0 -29 -11 -32 -23 -41 -26 -41 -12 0 5 9 13 20 16 11 3 20 11
20 16 0 9 -40 -9 -50 -23 -3 -3 -13 0 -23 7 -18 13 -17 14 7 31 15 9 24 19 22
21 -3 3 -19 -5 -36 -17 -17 -12 -34 -19 -38 -15 -4 4 -2 10 4 12 6 2 20 11 30
19 18 14 18 15 -6 8 -22 -6 -23 -5 -11 10 17 20 3 21 -23 1 -18 -14 -18 -15
-2 -15 9 0 14 -4 11 -10 -19 -31 -40 9 -23 45 l11 24 41 -23 c23 -12 100 -57
171 -98z m1755 118 c0 -2 -9 -6 -20 -9 -11 -3 -20 -1 -20 4 0 5 9 9 20 9 11 0
20 -2 20 -4z m3295 -26 c10 -16 -12 -12 -29 6 -9 8 -16 18 -16 20 0 7 38 -15
45 -26z m-5311 5 c-4 -8 -10 -15 -15 -15 -4 0 -6 7 -3 15 4 8 10 15 15 15 4 0
6 -7 3 -15z m5174 -7 c-2 -6 -10 -14 -16 -16 -7 -2 -10 2 -6 12 7 18 28 22 22
4z m-5158 -18 c0 -5 -5 -10 -11 -10 -5 0 -7 5 -4 10 3 6 8 10 11 10 2 0 4 -4
4 -10z m4644 4 c9 -3 16 -10 16 -15 0 -10 -61 0 -74 12 -11 10 34 12 58 3z
m-23 -34 c22 -12 25 -30 6 -30 -18 0 -67 24 -67 33 0 10 38 9 61 -3z m-5256
-60 c3 -5 1 -10 -4 -10 -6 0 -11 5 -11 10 0 6 2 10 4 10 3 0 8 -4 11 -10z
m1315 -20 c13 -8 10 -14 -15 -34 -28 -23 -52 -26 -40 -5 3 5 -1 6 -9 3 -24 -9
-19 11 7 29 26 19 37 20 57 7z m-2793 -6 c-3 -3 -12 -4 -19 -1 -8 3 -5 6 6 6
11 1 17 -2 13 -5z m71 -17 c25 -19 11 -28 -18 -10 -16 9 -30 21 -30 25 0 8 29
0 48 -15z m6570 17 c12 -4 22 -12 22 -19 0 -10 -8 -11 -35 -2 -55 16 -43 36
13 21z m-5428 -14 c0 -5 -2 -10 -4 -10 -3 0 -8 5 -11 10 -3 6 -1 10 4 10 6 0
11 -4 11 -10z m200 0 c0 -5 -4 -10 -9 -10 -6 0 -13 5 -16 10 -3 6 1 10 9 10 9
0 16 -4 16 -10z m-35 -10 c3 -5 2 -10 -4 -10 -5 0 -13 5 -16 10 -3 6 -2 10 4
10 5 0 13 -4 16 -10z m1493 -14 c23 -11 42 -22 42 -25 0 -12 -65 -42 -68 -32
-2 5 -11 7 -19 4 -12 -5 -15 -2 -10 10 3 9 2 17 -2 17 -5 0 -11 -5 -13 -12 -3
-9 -6 -9 -12 0 -4 7 3 16 18 24 14 6 26 15 26 20 0 5 -13 0 -29 -11 -32 -23
-41 -26 -41 -12 0 10 50 40 60 37 3 0 24 -10 48 -20z m1936 11 c27 -20 17 -51
-18 -55 -40 -5 -96 7 -96 20 0 7 14 8 40 4 38 -6 40 -5 40 19 0 28 8 31 34 12z
m1881 3 c3 -5 1 -10 -4 -10 -6 0 -11 5 -11 10 0 6 2 10 4 10 3 0 8 -4 11 -10z
m-7095 -10 c4 0 10 -7 14 -15 6 -16 -9 -11 -44 16 -13 9 -12 10 3 5 10 -3 22
-6 27 -6z m551 -13 c-10 -9 -11 -8 -5 6 3 10 9 15 12 12 3 -3 0 -11 -7 -18z
m1209 1 c0 -13 -23 -5 -28 10 -2 7 2 10 12 6 9 -3 16 -11 16 -16z m-1294 -1
c4 -3 -5 -12 -19 -18 -27 -12 -57 -7 -57 10 0 17 61 24 76 8z m189 -5 c19 -13
19 -13 -5 -8 -14 3 -38 6 -53 6 -17 0 -26 4 -22 10 8 14 54 9 80 -8z m895 9
c0 -14 -18 -23 -31 -15 -8 4 -7 9 2 15 18 11 29 11 29 0z m2334 0 c3 -5 -1
-11 -9 -14 -9 -4 -12 -1 -8 9 6 16 10 17 17 5z m3150 -1 c27 -10 36 -30 14
-30 -7 0 -25 6 -40 14 -19 10 -29 11 -37 3 -7 -7 -11 -7 -11 -1 0 25 30 31 74
14z m-6709 -10 c-3 -5 -10 -10 -16 -10 -5 0 -9 5 -9 10 0 6 7 10 16 10 8 0 12
-4 9 -10z m1375 -1 c0 -6 7 -9 15 -5 8 3 15 1 15 -3 0 -19 -30 -19 -40 -1 -7
14 -7 20 0 20 5 0 10 -5 10 -11z m3053 -9 c-6 -22 28 -40 73 -40 13 0 24 -4
24 -9 0 -16 -48 -21 -86 -8 -46 15 -63 39 -45 61 19 23 40 20 34 -4z m2212
-22 c47 -23 85 -46 85 -50 0 -4 -12 0 -27 8 -40 20 -58 17 -73 -11 -7 -14 -17
-25 -22 -25 -13 0 -9 12 9 26 21 15 15 23 -22 30 -54 10 -80 36 -58 57 11 11
20 9 108 -35z m-6260 12 c3 -5 3 -15 -1 -21 -6 -11 -23 6 -24 24 0 10 18 9 25
-3z m3209 -5 c-4 -8 -10 -12 -15 -9 -14 8 -10 24 6 24 9 0 12 -6 9 -15z m776
-7 c0 -12 8 -31 18 -42 17 -20 17 -20 -8 -5 -25 16 -41 69 -21 69 6 0 11 -10
11 -22z m-3030 -3 c0 -8 -2 -15 -4 -15 -2 0 -6 7 -10 15 -3 8 -1 15 4 15 6 0
10 -7 10 -15z m1680 5 c0 -5 -5 -10 -12 -10 -6 0 -8 -3 -5 -6 4 -4 13 -1 21 5
13 11 30 4 100 -35 46 -27 82 -52 79 -57 -3 -4 -16 -13 -30 -18 -14 -5 -23
-12 -20 -16 4 -3 18 2 32 11 22 15 31 15 60 5 27 -10 32 -16 23 -26 -15 -19
-29 -16 -21 4 5 14 1 13 -25 -6 -31 -22 -33 -22 -62 -4 -37 21 -37 27 -4 42
15 6 24 14 21 17 -3 4 -18 -3 -34 -14 -27 -19 -29 -19 -61 -2 l-33 18 28 22
28 22 -38 -21 -38 -21 7 22 c6 20 5 21 -10 9 -20 -17 -48 2 -39 27 5 14 3 15
-8 5 -16 -15 -29 -17 -29 -4 0 6 12 16 28 24 34 18 42 20 42 7z m-1714 -27
c-7 -7 -26 7 -26 19 0 6 6 6 15 -2 9 -7 13 -15 11 -17z m-666 -23 c0 -5 -2
-10 -4 -10 -3 0 -8 5 -11 10 -3 6 -1 10 4 10 6 0 11 -4 11 -10z m2927 -30
c-13 -21 -27 -26 -27 -10 0 6 5 10 12 10 9 0 9 3 0 12 -19 19 -14 30 8 18 17
-9 18 -14 7 -30z m-2957 15 c7 -9 8 -15 2 -15 -5 0 -12 7 -16 15 -3 8 -4 15
-2 15 2 0 9 -7 16 -15z m5733 2 c6 4 21 8 34 9 32 4 30 -29 -3 -53 -23 -17
-24 -20 -10 -32 14 -12 16 -12 10 2 -6 16 28 42 40 30 3 -3 6 1 6 10 0 10 5
17 10 17 6 0 10 -5 10 -11 0 -17 -24 -36 -39 -31 -10 3 -12 -1 -8 -17 6 -24
-20 -30 -41 -9 -9 9 -15 9 -23 1 -13 -13 -4 -33 17 -33 8 0 14 -4 14 -10 0
-14 -12 -12 -37 5 -19 13 -22 13 -34 -1 -11 -14 -11 -18 2 -28 10 -7 13 -20 9
-36 -4 -19 -16 -27 -50 -36 -25 -7 -37 -12 -27 -13 23 -1 22 -18 -2 -26 -30
-9 -73 5 -66 22 4 11 1 13 -11 9 -8 -3 -20 -6 -25 -6 -5 0 -14 -10 -19 -22
l-9 -23 0 23 c-1 12 -7 22 -13 22 -7 0 -2 9 12 20 14 11 30 18 37 15 6 -2 17
3 25 12 11 14 11 15 -2 11 -17 -6 -50 8 -50 21 0 5 18 18 40 30 30 15 46 19
59 12 14 -8 29 0 75 41 42 37 54 53 46 63 -5 6 -7 15 -3 19 4 4 9 2 11 -3 2
-6 9 -8 15 -4z m-5823 -12 c27 -14 29 -20 27 -58 -2 -35 -7 -43 -25 -45 -21
-3 -32 13 -13 20 19 7 17 68 -2 68 -7 0 -22 7 -33 15 -18 13 -18 14 -1 15 10
0 31 -7 47 -15z m6050 5 c0 -5 -5 -10 -11 -10 -5 0 -7 5 -4 10 3 6 8 10 11 10
2 0 4 -4 4 -10z m165 -26 l-30 -26 30 6 c22 5 26 4 15 -4 -8 -5 -10 -10 -4
-10 7 0 15 -7 18 -16 5 -14 4 -15 -8 -5 -31 26 -78 9 -130 -46 -27 -29 -52
-50 -57 -47 -5 3 4 17 21 31 16 13 30 33 30 44 0 11 7 19 16 19 9 0 12 5 8 12
-4 6 -3 8 4 5 5 -4 21 -3 34 2 14 6 17 10 7 10 -9 1 -24 10 -34 21 -17 19 -17
19 11 11 19 -5 40 -3 59 5 42 19 44 17 10 -12z m-200 -14 c-3 -5 1 -10 9 -10
8 0 18 5 21 10 10 16 35 12 35 -6 0 -9 -5 -14 -12 -12 -6 2 -20 -4 -31 -15
-17 -17 -20 -17 -30 -2 -11 14 -14 14 -32 1 -12 -10 -16 -19 -10 -23 18 -15
16 -39 -4 -39 -28 0 -34 34 -10 54 10 9 19 22 19 28 0 13 15 22 38 23 7 1 10
-3 7 -9z m-2955 -9 c0 -5 -11 -16 -25 -25 -28 -18 -31 -15 -13 14 13 20 38 28
38 11z m2897 3 c-3 -3 -12 -4 -19 -1 -8 3 -5 6 6 6 11 1 17 -2 13 -5z m-6566
-45 c11 -11 18 -23 16 -26 -7 -6 -57 27 -57 38 0 15 19 10 41 -12z m6329 11
c0 -5 -4 -10 -10 -10 -5 0 -10 5 -10 10 0 6 5 10 10 10 6 0 10 -4 10 -10z
m-2864 -40 c43 -22 84 -38 91 -36 7 3 13 -2 13 -10 0 -9 6 -14 13 -11 6 2 11
12 11 21 -2 15 72 83 80 75 5 -4 9 -47 7 -67 -1 -10 -8 -9 -30 3 -22 11 -32
12 -37 3 -4 -7 -3 -8 4 -4 8 5 12 -1 12 -14 0 -12 9 -34 21 -48 l21 -27 -26
-20 c-23 -18 -24 -21 -6 -21 10 0 17 2 15 4 -2 3 2 11 10 19 13 12 20 11 56
-10 l41 -25 -26 -17 c-36 -24 -25 -32 12 -9 29 17 31 16 78 -11 27 -15 67 -37
89 -48 36 -18 183 -104 195 -114 5 -5 -21 -23 -32 -23 -5 0 -8 9 -8 19 0 32
-32 35 -58 5 -17 -20 -26 -24 -35 -15 -8 8 -5 17 13 36 28 29 9 34 -20 5 -11
-11 -26 -17 -35 -14 -22 9 -19 21 10 40 14 9 23 19 20 22 -3 3 -18 -7 -33 -21
-25 -24 -30 -26 -47 -13 -17 12 -18 16 -5 32 14 16 13 16 -7 6 -29 -16 -34
-15 -27 3 4 8 1 15 -5 15 -6 0 -11 -5 -11 -11 0 -6 -6 -9 -12 -6 -7 2 -13 9
-13 15 0 7 2 11 5 10 3 -1 16 4 29 11 18 10 21 15 10 22 -9 5 -22 0 -39 -16
l-25 -24 -55 31 c-50 28 -52 31 -35 44 10 8 22 14 27 14 16 0 7 19 -12 25 -12
4 -26 0 -36 -9 -18 -18 -11 -21 17 -6 25 14 25 -2 -1 -17 -20 -13 -50 -8 -50
9 0 5 -4 7 -9 4 -4 -3 -16 1 -26 8 -17 13 -17 14 8 31 15 9 27 22 27 28 0 7
-4 7 -12 -1 -7 -7 -17 -12 -22 -12 -6 0 -5 5 2 12 19 19 14 33 -6 15 -10 -10
-24 -17 -30 -17 -7 0 -12 -5 -12 -11 0 -6 9 -8 22 -3 20 6 21 5 9 -9 -10 -13
-18 -14 -32 -6 -25 13 -24 19 9 47 l27 23 -30 -18 c-16 -10 -33 -21 -36 -26
-7 -10 -70 25 -66 37 2 6 9 12 15 14 8 2 10 -3 5 -13 -6 -16 -4 -16 20 0 15 9
27 22 27 28 0 7 -4 7 -12 -1 -17 -17 -33 -15 -18 3 18 21 0 18 -30 -5 -28 -22
-40 -25 -40 -10 0 6 11 16 25 22 14 6 25 15 25 20 0 15 -15 9 -43 -18 -16 -14
-31 -23 -35 -19 -4 4 7 18 23 31 38 30 24 32 -18 2 -25 -18 -29 -19 -24 -5 7
20 -4 22 -21 5 -9 -9 -12 -9 -12 0 0 6 9 16 19 22 25 13 34 13 26 0 -3 -5 -2
-10 3 -10 16 0 21 12 9 25 -10 11 -18 10 -43 -6 -18 -11 -39 -16 -48 -13 -19
7 -17 25 4 32 7 3 10 0 6 -7 -10 -16 7 -14 30 4 10 8 22 15 25 15 3 0 42 -18
85 -40z m3354 19 c0 -6 -4 -7 -10 -4 -5 3 -10 11 -10 16 0 6 5 7 10 4 6 -3 10
-11 10 -16z m-4941 -23 c-3 -3 -11 5 -18 17 -13 21 -12 21 5 5 10 -10 16 -20
13 -22z m2376 2 c4 -18 15 -30 30 -34 14 -3 27 -14 30 -23 3 -9 18 -25 35 -34
16 -10 30 -22 30 -28 0 -15 -5 -11 -61 36 -29 25 -68 51 -86 57 -18 7 -33 15
-33 19 0 42 46 48 55 7z m-3195 17 c0 -2 -19 -14 -42 -26 -46 -23 -46 -17 -1
12 29 18 43 23 43 14z m3035 -5 c3 -5 4 -10 1 -10 -2 0 -11 -3 -19 -6 -8 -3
-17 2 -20 10 -7 18 27 23 38 6z m-2245 -15 c7 -9 8 -15 2 -15 -5 0 -12 7 -16
15 -3 8 -4 15 -2 15 2 0 9 -7 16 -15z m4950 1 c0 -11 -19 -15 -25 -6 -3 5 1
10 9 10 9 0 16 -2 16 -4z m-5650 -31 c0 -8 -2 -15 -4 -15 -2 0 -6 7 -10 15 -3
8 -1 15 4 15 6 0 10 -7 10 -15z m3104 -13 c16 -9 38 -30 50 -45 l21 -28 -20
-37 c-49 -91 -229 -108 -312 -30 -13 12 -23 31 -22 42 0 21 0 21 9 1 4 -12 16
-27 26 -35 16 -12 17 -12 7 0 -35 39 11 136 74 153 32 10 137 -4 167 -21z
m-3160 -7 c4 -13 2 -14 -14 -5 -23 13 -26 20 -6 20 8 0 16 -7 20 -15z m-984
-20 c8 -9 8 -15 2 -15 -18 0 -42 12 -42 21 0 14 26 10 40 -6z m936 0 c16 -8
22 -15 13 -15 -8 0 -24 7 -35 15 -25 19 -14 19 22 0z m851 -7 c-3 -8 -6 -5 -6
6 -1 11 2 17 5 13 3 -3 4 -12 1 -19z m4753 13 c0 -20 -79 -91 -102 -91 -20 0
-18 3 14 23 20 12 46 34 58 50 23 28 30 33 30 18z m-5436 -7 c19 -7 22 -23 4
-20 -7 1 -22 7 -33 14 -17 9 -17 11 -3 12 9 0 23 -3 32 -6z m5255 2 c-12 -10
-59 -15 -59 -6 0 5 14 10 32 10 17 0 29 -2 27 -4z m41 -16 c0 -5 -4 -10 -10
-10 -5 0 -10 5 -10 10 0 6 5 10 10 10 6 0 10 -4 10 -10z m-4585 -9 c3 -5 1
-12 -5 -16 -5 -3 -10 1 -10 9 0 18 6 21 15 7z m4555 -1 c0 -5 -6 -10 -14 -10
-7 0 -19 -7 -26 -15 -7 -8 -28 -15 -46 -15 -43 0 -49 30 -6 31 15 0 36 4 47 9
28 12 45 12 45 0z m-4694 -27 c-10 -10 -19 5 -10 18 6 11 8 11 12 0 2 -7 1
-15 -2 -18z m-661 7 c-3 -5 -11 -10 -16 -10 -6 0 -7 5 -4 10 3 6 11 10 16 10
6 0 7 -4 4 -10z m40 0 c3 -5 1 -10 -4 -10 -6 0 -11 5 -11 10 0 6 2 10 4 10 3
0 8 -4 11 -10z m595 1 c0 -5 -9 -11 -20 -14 -22 -6 -28 8 -7 16 19 8 27 8 27
-2z m-473 -7 c-3 -3 -12 -4 -19 -1 -8 3 -5 6 6 6 11 1 17 -2 13 -5z m4873 -4
c0 -5 -4 -10 -10 -10 -5 0 -10 5 -10 10 0 6 5 10 10 10 6 0 10 -4 10 -10z
m470 -4 c0 -2 -40 -46 -90 -97 -49 -52 -89 -87 -89 -79 0 8 6 24 14 34 20 26
19 36 -2 37 -15 0 -15 2 2 8 11 5 22 4 23 -1 4 -8 26 8 105 74 33 28 37 31 37
24z m-4701 -20 c8 -10 8 -16 -1 -24 -10 -8 -13 -4 -13 14 0 28 -1 28 14 10z
m-1184 -27 c14 -18 25 -41 23 -53 -4 -27 -38 -35 -38 -9 0 10 -7 27 -15 37
-17 22 -20 56 -6 56 5 0 21 -14 36 -31z m1446 16 c0 -6 -10 -12 -23 -13 -19
-4 -20 -2 -9 12 15 17 33 18 32 1z m-941 -10 c-7 -9 -15 -13 -19 -10 -3 3 1
10 9 15 21 14 24 12 10 -5z m645 5 c3 -5 1 -10 -4 -10 -6 0 -11 5 -11 10 0 6
2 10 4 10 3 0 8 -4 11 -10z m2542 -6 c3 -8 12 -13 19 -10 23 9 16 -2 -19 -28
-40 -31 -77 -26 -77 9 0 16 8 26 28 33 38 14 42 14 49 -4z m2048 6 c-28 -12
-37 -12 -30 0 3 6 16 10 28 9 21 0 21 -1 2 -9z m139 -12 c-108 -122 -202 -222
-219 -231 -11 -5 36 49 105 121 68 73 126 132 129 132 2 0 -4 -10 -15 -22z
m-5024 -9 c0 -13 -41 -28 -58 -22 -10 4 -10 9 -1 20 9 9 15 11 23 3 16 -16 30
-12 16 5 -11 13 -10 14 4 9 9 -3 16 -10 16 -15z m-1359 -9 c14 -11 18 -19 11
-20 -19 0 -52 19 -52 30 0 16 16 12 41 -10z m5966 13 c-12 -3 -16 -10 -12 -24
6 -18 -13 -27 -28 -13 -9 9 26 44 43 43 11 -1 10 -3 -3 -6z m163 4 c0 -2 -10
-12 -22 -23 l-23 -19 19 23 c18 21 26 27 26 19z m-5064 -37 c3 0 14 5 25 10
10 6 19 8 19 5 0 -9 -71 -37 -78 -31 -3 3 0 6 6 6 7 0 13 10 13 23 1 16 2 18
6 5 2 -10 7 -18 9 -18z m5122 7 c8 -10 6 -16 -9 -25 -10 -7 -19 -8 -19 -3 0 5
6 12 13 14 9 4 8 8 -3 16 -8 6 -10 11 -4 11 6 0 16 -6 22 -13z m-7358 -5 c0
-13 -12 -22 -22 -16 -10 6 -1 24 13 24 5 0 9 -4 9 -8z m2910 -18 c0 -22 -16
-17 -17 6 -1 11 2 18 8 15 5 -4 9 -13 9 -21z m2489 -1 c-13 -16 -12 -17 4 -4
13 11 23 11 40 3 12 -6 28 -12 35 -14 18 -5 -65 -63 -102 -72 -22 -5 -26 -10
-17 -19 34 -34 -13 -37 -52 -3 l-28 24 38 35 c67 62 86 77 91 72 3 -2 -1 -13
-9 -22z m1575 -3 c-6 -6 -15 -6 -24 0 -13 9 -13 11 0 20 18 11 39 -5 24 -20z
m-4407 -1 c-2 -25 -32 -45 -43 -28 -3 6 0 15 7 20 8 5 10 9 4 9 -11 0 15 20
27 20 4 0 6 -9 5 -21z m103 17 c0 -3 -4 -8 -10 -11 -5 -3 -10 -1 -10 4 0 6 5
11 10 11 6 0 10 -2 10 -4z m4549 -26 c-21 -14 -32 1 -12 15 12 9 19 10 22 3 2
-6 -3 -14 -10 -18z m-4614 10 c3 -5 -1 -10 -9 -10 -9 0 -16 5 -16 10 0 6 4 10
9 10 6 0 13 -4 16 -10z m4033 -2 c-6 -17 -38 -23 -38 -8 0 6 5 8 10 5 6 -3 10
-1 10 4 0 6 5 11 11 11 6 0 9 -6 7 -12z m457 -16 c19 -11 19 -11 -6 -12 -31 0
-40 7 -32 27 3 8 9 11 12 5 3 -5 15 -14 26 -20z m-4665 9 c0 -5 -7 -11 -15
-15 -15 -5 -20 5 -8 17 9 10 23 9 23 -2z m330 -1 c0 -5 -5 -10 -11 -10 -5 0
-7 5 -4 10 3 6 8 10 11 10 2 0 4 -4 4 -10z m-2707 -15 c-4 -15 -36 -12 -41 3
-3 9 3 13 19 10 13 -1 23 -7 22 -13z m6329 -7 c-7 -7 -12 -8 -12 -2 0 14 12
26 19 19 2 -3 -1 -11 -7 -17z m515 -5 c-15 -16 -17 -16 -17 -1 0 9 6 18 13 21
20 7 22 -2 4 -20z m-4186 4 c-1 -12 -15 -9 -19 4 -3 6 1 10 8 8 6 -3 11 -8 11
-12z m2808 0 c-8 -7 -22 -26 -29 -44 -10 -21 -17 -28 -22 -20 -6 9 -8 9 -8 0
0 -7 -6 -13 -12 -13 -7 1 -3 9 9 19 16 14 19 21 10 30 -8 8 -7 11 6 11 10 0
20 7 23 15 4 8 14 15 23 15 14 -1 14 -2 0 -13z m1786 -23 c-10 -20 -15 -23
-15 -11 0 16 21 49 28 42 1 -1 -4 -15 -13 -31z m85 26 c0 -5 -5 -10 -11 -10
-5 0 -7 5 -4 10 3 6 8 10 11 10 2 0 4 -4 4 -10z m-4285 -10 c3 -5 1 -10 -4
-10 -6 0 -11 5 -11 10 0 6 2 10 4 10 3 0 8 -4 11 -10z m3835 6 c0 -3 -4 -8
-10 -11 -5 -3 -10 -1 -10 4 0 6 5 11 10 11 6 0 10 -2 10 -4z m-4485 -16 c-3
-5 -11 -10 -16 -10 -6 0 -7 5 -4 10 3 6 11 10 16 10 6 0 7 -4 4 -10z m205 0
c0 -5 -4 -10 -10 -10 -5 0 -10 5 -10 10 0 6 5 10 10 10 6 0 10 -4 10 -10z
m4497 -12 c-3 -8 -6 -5 -6 6 -1 11 2 17 5 13 3 -3 4 -12 1 -19z m-5062 -7 c33
-20 43 -45 25 -66 -17 -21 -30 -9 -30 26 0 18 -4 28 -10 24 -12 -7 -40 12 -40
26 0 14 22 10 55 -10z m405 10 c0 -9 -24 -21 -41 -21 -14 0 14 29 29 30 6 0
12 -4 12 -9z m280 -23 c0 -26 -24 -18 -28 10 -3 16 1 20 12 16 9 -3 16 -15 16
-26z m2750 17 c0 -8 -4 -15 -10 -15 -5 0 -10 7 -10 15 0 8 5 15 10 15 6 0 10
-7 10 -15z m1519 6 c17 -11 6 -31 -18 -31 -25 0 -33 11 -20 27 13 15 19 16 38
4z m-5745 -16 c23 -17 13 -34 -11 -19 -19 12 -29 34 -16 34 4 0 17 -7 27 -15z
m1306 5 c-20 -13 -33 -13 -25 0 3 6 14 10 23 10 15 0 15 -2 2 -10z m202 -12
c-6 -6 -15 -8 -19 -4 -4 4 -1 11 7 16 19 12 27 3 12 -12z m3402 16 c23 -9 20
-24 -4 -24 -11 0 -20 7 -20 15 0 17 2 18 24 9z m651 -4 c4 -6 -5 -10 -19 -10
-14 0 -26 5 -26 10 0 6 9 10 19 10 11 0 23 -4 26 -10z m-5345 -10 c0 -5 -13
-16 -30 -25 l-30 -15 12 25 c11 24 48 36 48 15z m4290 1 c0 -12 -21 -19 -37
-13 -22 8 -14 22 12 22 14 0 25 -4 25 -9z m1700 -1 c0 -5 -5 -10 -11 -10 -5 0
-7 5 -4 10 3 6 8 10 11 10 2 0 4 -4 4 -10z m-1490 -20 c0 -5 -10 -10 -22 -10
-19 0 -20 2 -8 10 19 13 30 13 30 0z m410 0 c0 -5 -9 -10 -20 -10 -11 0 -20 5
-20 10 0 6 9 10 20 10 11 0 20 -4 20 -10z m-3902 -25 c-3 -3 -9 2 -12 12 -6
14 -5 15 5 6 7 -7 10 -15 7 -18z m337 11 c-11 -8 -24 -12 -28 -9 -11 7 12 23
32 23 11 0 9 -4 -4 -14z m4114 -8 c12 -16 11 -18 -13 -18 -27 0 -37 24 -13 33
6 2 12 4 12 3 1 0 7 -9 14 -18z m-1239 2 c8 -5 12 -12 9 -15 -8 -8 -39 5 -39
16 0 11 11 11 30 -1z m140 0 c0 -5 -4 -10 -10 -10 -5 0 -10 5 -10 10 0 6 5 10
10 10 6 0 10 -4 10 -10z m600 -5 c10 -13 9 -15 -9 -15 -12 0 -21 6 -21 15 0 8
4 15 9 15 5 0 14 -7 21 -15z m635 5 c3 -5 2 -10 -4 -10 -5 0 -13 5 -16 10 -3
6 -2 10 4 10 5 0 13 -4 16 -10z m-4395 -15 c0 -9 -9 -15 -25 -15 -16 0 -25 6
-25 15 0 9 9 15 25 15 16 0 25 -6 25 -15z m170 6 c0 -6 -4 -13 -10 -16 -5 -3
-10 1 -10 9 0 9 5 16 10 16 6 0 10 -4 10 -9z m3108 -10 c15 -10 46 -28 70 -40
69 -35 48 -43 -25 -8 -37 17 -79 30 -93 29 -23 -1 -23 0 -8 12 10 7 15 16 11
19 -14 15 21 6 45 -12z m187 -1 c0 -22 -39 -19 -43 3 -3 15 1 18 20 15 12 -2
23 -10 23 -18z m142 -5 c-7 -16 -37 -21 -37 -5 0 10 32 31 39 25 2 -2 1 -11
-2 -20z m451 7 c3 -10 -4 -13 -24 -10 -15 2 -29 9 -32 16 -3 10 4 13 24 10 15
-2 29 -9 32 -16z m-4858 -13 c0 -5 -4 -9 -10 -9 -5 0 -10 7 -10 16 0 8 5 12
10 9 6 -3 10 -10 10 -16z m3505 1 c3 -5 -3 -10 -14 -10 -12 0 -21 5 -21 10 0
6 6 10 14 10 8 0 18 -4 21 -10z m437 -5 c0 -5 -5 -11 -11 -13 -6 -2 -11 4 -11
13 0 9 5 15 11 13 6 -2 11 -8 11 -13z m498 5 c0 -5 -4 -10 -10 -10 -5 0 -10 5
-10 10 0 6 5 10 10 10 6 0 10 -4 10 -10z m-4300 -9 c0 -16 -20 -23 -46 -17
-36 9 -29 26 11 26 19 0 35 -4 35 -9z m585 0 c3 -5 1 -12 -5 -16 -5 -3 -10 1
-10 9 0 18 6 21 15 7z m312 -8 c5 -13 -43 -30 -54 -19 -3 3 0 13 7 21 15 18
41 16 47 -2z m2328 -11 c-8 -8 -25 10 -19 20 4 6 9 5 15 -3 4 -7 6 -15 4 -17z
m1135 17 c0 -5 -7 -12 -15 -15 -8 -4 -15 -13 -15 -22 0 -10 -3 -13 -10 -6 -15
15 -1 50 21 51 10 1 19 -3 19 -8z m875 1 c3 -5 -1 -10 -9 -10 -9 0 -16 5 -16
10 0 6 4 10 9 10 6 0 13 -4 16 -10z m-1583 -44 c13 -19 9 -26 -17 -26 -15 0
-25 -6 -25 -14 0 -8 -7 -16 -15 -20 -23 -8 -18 5 12 36 23 24 25 31 13 38 -8
5 -19 5 -25 0 -6 -5 -17 -5 -25 1 -13 8 -13 10 -1 18 15 10 69 -12 83 -33z
m124 29 c10 -24 -6 -38 -22 -18 -7 10 -14 21 -14 26 0 13 31 7 36 -8z m-3061
-6 c11 -17 -1 -21 -15 -4 -8 9 -8 15 -2 15 6 0 14 -5 17 -11z m560 1 c3 -5 1
-10 -4 -10 -6 0 -11 5 -11 10 0 6 2 10 4 10 3 0 8 -4 11 -10z m2025 2 c0 -13
-12 -22 -22 -16 -10 6 -1 24 13 24 5 0 9 -4 9 -8z m169 -18 c-15 -18 -22 -13
-13 10 3 9 10 13 16 10 5 -3 4 -12 -3 -20z m1554 12 c6 -16 -2 -28 -14 -20
-12 7 -11 34 0 34 5 0 11 -6 14 -14z m-6853 -6 c0 -5 -5 -10 -11 -10 -5 0 -7
5 -4 10 3 6 8 10 11 10 2 0 4 -4 4 -10z m1210 -5 c16 -19 0 -19 -26 0 -16 12
-16 14 -3 15 9 0 22 -7 29 -15z m844 9 c23 -9 20 -34 -3 -34 -22 0 -35 15 -26
30 7 12 8 12 29 4z m3306 2 c0 -2 -8 -10 -17 -17 -16 -13 -17 -12 -4 4 13 16
21 21 21 13z m210 -3 c0 -5 -4 -14 -9 -21 -7 -11 -9 -11 -14 1 -3 8 -3 18 0
21 9 8 23 7 23 -1z m464 -8 c4 -10 -1 -15 -17 -16 -12 0 -16 -3 -9 -6 6 -2 12
-12 12 -20 0 -13 -2 -13 -16 -2 -14 11 -18 11 -29 -4 -6 -9 -15 -14 -18 -11
-8 8 45 74 59 74 7 0 14 -7 18 -15z m-2954 -5 c0 -5 -2 -10 -4 -10 -3 0 -8 5
-11 10 -3 6 -1 10 4 10 6 0 11 -4 11 -10z m2010 -8 c0 -9 -48 -31 -54 -25 -7
8 37 42 46 36 5 -2 8 -7 8 -11z m1375 -3 c0 -17 -47 -19 -52 -2 -2 6 4 13 14
16 26 7 38 2 38 -14z m-3410 1 c3 -5 1 -10 -4 -10 -6 0 -11 5 -11 10 0 6 2 10
4 10 3 0 8 -4 11 -10z m365 -5 c7 -9 9 -19 5 -23 -4 -4 -10 -1 -12 6 -3 6 -11
12 -19 12 -8 0 -14 5 -14 10 0 15 26 12 40 -5z m3250 5 c0 -5 -9 -10 -20 -10
-11 0 -20 5 -20 10 0 6 9 10 20 10 11 0 20 -4 20 -10z m-4556 -22 c7 -12 6
-21 -3 -32 -21 -25 -31 -19 -31 20 0 37 14 42 34 12z m836 1 c-7 -11 -14 -19
-16 -16 -7 7 7 37 17 37 6 0 5 -9 -1 -21z m2210 11 c0 -5 -7 -7 -15 -4 -8 4
-15 8 -15 10 0 2 7 4 15 4 8 0 15 -4 15 -10z m225 0 c3 -5 -1 -10 -9 -10 -9 0
-16 5 -16 10 0 6 4 10 9 10 6 0 13 -4 16 -10z m688 -5 c0 -6 -7 -11 -16 -13
-12 -3 -15 1 -11 13 7 17 25 17 27 0z m-6173 -5 c0 -5 -4 -10 -10 -10 -5 0
-10 5 -10 10 0 6 5 10 10 10 6 0 10 -4 10 -10z m144 -11 c-3 -5 -10 -7 -15 -3
-5 3 -7 10 -3 15 3 5 10 7 15 3 5 -3 7 -10 3 -15z m2574 12 c10 -6 8 -11 -10
-23 -56 -35 -90 -26 -41 11 32 23 33 24 51 12z m412 -1 c0 -5 -2 -10 -4 -10
-3 0 -8 5 -11 10 -3 6 -1 10 4 10 6 0 11 -4 11 -10z m2572 -34 c-3 -5 -9 -1
-13 10 -12 31 -10 39 5 19 8 -11 12 -24 8 -29z m-2822 19 c10 -12 9 -16 -4
-21 -9 -3 -23 -3 -32 0 -13 5 -14 9 -4 21 7 8 16 15 20 15 4 0 13 -7 20 -15z
m2340 -5 c0 -5 -4 -10 -9 -10 -6 0 -13 5 -16 10 -3 6 1 10 9 10 9 0 16 -4 16
-10z m-1812 -23 c3 -12 -3 -17 -22 -17 -25 0 -35 18 -19 34 12 12 38 2 41 -17z
m2792 8 c0 -8 -2 -15 -4 -15 -2 0 -6 7 -10 15 -3 8 -1 15 4 15 6 0 10 -7 10
-15z m-6150 -15 c0 -5 -5 -12 -11 -16 -12 -7 -31 15 -23 28 6 9 34 -1 34 -12z
m2500 -1 c0 -6 -4 -7 -10 -4 -5 3 -10 11 -10 16 0 6 5 7 10 4 6 -3 10 -11 10
-16z m3210 17 c0 -3 -4 -8 -10 -11 -5 -3 -10 -1 -10 4 0 6 5 11 10 11 6 0 10
-2 10 -4z m1124 -5 c3 -5 0 -11 -8 -14 -15 -6 -26 1 -26 15 0 11 27 10 34 -1z
m-4894 -16 c0 -8 -7 -15 -15 -15 -8 0 -15 7 -15 15 0 8 7 15 15 15 8 0 15 -7
15 -15z m3510 5 c0 -5 -4 -10 -9 -10 -6 0 -13 5 -16 10 -3 6 1 10 9 10 9 0 16
-4 16 -10z m186 -19 c-4 -5 -13 -8 -21 -4 -11 4 -15 -2 -15 -20 0 -23 26 -45
38 -32 3 3 0 5 -6 5 -7 0 -3 9 8 20 11 11 28 20 37 20 15 0 14 -2 -3 -14 -10
-8 -16 -17 -12 -21 10 -10 -24 -45 -44 -45 -20 0 -60 35 -50 44 3 3 -5 6 -17
6 -17 0 -22 5 -19 22 2 13 11 24 20 26 13 2 16 -1 12 -12 -9 -25 10 -19 35 10
16 18 26 23 33 16 6 -6 7 -15 4 -21z m465 16 c-1 -12 -15 -9 -19 4 -3 6 1 10
8 8 6 -3 11 -8 11 -12z m333 -3 c5 -12 0 -15 -21 -12 -14 2 -28 9 -31 16 -6
18 45 15 52 -4z m196 6 c0 -5 -9 -10 -20 -10 -11 0 -20 5 -20 10 0 6 9 10 20
10 11 0 20 -4 20 -10z m403 -5 c1 -5 -6 -11 -15 -13 -11 -2 -18 3 -18 13 0 17
30 18 33 0z m-5619 -16 c28 -22 34 -39 14 -39 -18 0 -69 45 -61 54 10 10 19 7
47 -15z m606 10 c0 -5 -11 -9 -25 -9 -14 0 -25 4 -25 9 0 5 11 9 25 9 14 0 25
-4 25 -9z m73 -4 c1 -5 -10 -11 -25 -13 -16 -2 -28 1 -28 7 0 20 49 26 53 6z
m1456 -11 c-6 -7 -15 -11 -21 -8 -5 3 -4 12 3 20 6 7 15 11 21 8 5 -3 4 -12
-3 -20z m-1238 -16 c30 -33 34 -58 12 -65 -11 -4 -73 71 -73 89 0 19 33 6 61
-24z m629 17 c0 -9 -9 -15 -25 -15 -24 0 -32 10 -18 23 12 13 43 7 43 -8z
m1110 -9 c0 -3 -4 -8 -10 -11 -5 -3 -10 -1 -10 4 0 6 5 11 10 11 6 0 10 -2 10
-4z m-1359 -21 c0 -5 -9 -11 -21 -13 -20 -3 -27 8 -13 22 10 9 34 3 34 -9z
m788 2 c14 -17 4 -27 -26 -27 -25 0 -29 10 -11 28 15 15 23 15 37 -1z m3712
-2 c0 -6 -10 -12 -23 -13 -19 -4 -20 -2 -9 12 15 17 33 18 32 1z m-1451 -14
c0 -5 -8 -8 -17 -7 -10 0 -17 -5 -15 -11 2 -14 -10 -17 -21 -7 -9 9 33 45 44
38 5 -3 9 -9 9 -13z m1020 11 c0 -14 -11 -21 -26 -15 -8 3 -11 9 -8 14 7 11
34 12 34 1z m205 -2 c3 -5 -3 -10 -15 -10 -12 0 -18 5 -15 10 3 6 10 10 15 10
5 0 12 -4 15 -10z m-4151 -9 c3 -5 0 -13 -7 -19 -15 -13 -42 1 -33 17 9 13 33
15 40 2z m506 -6 c0 -9 -7 -18 -16 -22 -18 -7 -39 11 -30 26 11 17 46 13 46
-4z m3234 6 c7 -11 -14 -20 -31 -13 -7 2 -13 8 -13 13 0 12 37 12 44 0z m-214
-11 c0 -5 -9 -10 -20 -10 -11 0 -20 5 -20 10 0 6 9 10 20 10 11 0 20 -4 20
-10z m-3730 -26 c0 -16 -35 -19 -45 -5 -6 11 26 32 37 25 5 -3 8 -12 8 -20z
m280 -34 c-23 -15 -29 -12 -23 10 4 14 0 20 -11 20 -17 0 -21 12 -9 24 4 3 18
-5 32 -19 22 -22 24 -27 11 -35z m3180 56 c0 -11 -19 -15 -25 -6 -3 5 1 10 9
10 9 0 16 -2 16 -4z m65 -7 c10 -16 0 -21 -29 -13 -14 3 -23 10 -20 15 7 12
41 11 49 -2z m-560 -23 c25 -24 26 -25 7 -35 -11 -6 -30 -8 -42 -6 -12 2 -31
0 -40 -5 -13 -7 -20 -6 -23 3 -5 17 35 36 51 24 11 -8 12 -5 7 16 -9 34 6 35
40 3z m215 20 c0 -3 -4 -8 -10 -11 -5 -3 -10 -1 -10 4 0 6 5 11 10 11 6 0 10
-2 10 -4z m-4220 -30 c24 -27 22 -56 -5 -56 -13 0 -45 53 -45 75 0 14 29 2 50
-19z m1992 2 c-6 -6 -16 -7 -22 -3 -9 6 -9 9 1 16 17 10 34 0 21 -13z m2457 4
c-31 -24 -59 -34 -59 -22 0 6 9 10 21 10 15 0 19 5 15 15 -4 11 2 15 21 15
l26 0 -24 -18z m-3548 -7 c0 -5 -9 -11 -21 -13 -20 -3 -27 8 -13 22 10 9 34 3
34 -9z m269 0 c0 -16 -35 -21 -44 -6 -8 12 4 21 26 21 10 0 18 -7 18 -15z
m659 6 c17 -11 6 -31 -18 -31 -25 0 -33 11 -20 27 13 15 19 16 38 4z m526 -1
c-3 -5 -13 -10 -21 -10 -8 0 -14 5 -14 10 0 6 9 10 21 10 11 0 17 -4 14 -10z
m1070 -21 c30 -17 58 -36 61 -41 7 -11 -17 -32 -70 -64 -29 -17 -29 -16 7 18
20 19 37 40 37 46 0 6 -24 24 -52 41 -29 17 -50 31 -45 31 4 0 32 -14 62 -31z
m-2685 12 c0 -12 -29 -23 -41 -15 -5 3 -7 10 -4 15 8 12 45 12 45 0z m860 -12
c0 -5 -7 -9 -15 -9 -15 0 -20 12 -9 23 8 8 24 -1 24 -14z m360 0 c0 -4 -7 -6
-15 -3 -8 4 -15 10 -15 15 0 4 7 6 15 3 8 -4 15 -10 15 -15z m2300 6 c-6 -8
-9 -19 -5 -25 7 -11 -7 -14 -18 -4 -7 8 15 44 27 44 4 0 3 -7 -4 -15z m1050 5
c0 -5 -7 -10 -16 -10 -8 0 -12 5 -9 10 3 6 10 10 16 10 5 0 9 -4 9 -10z m230
-6 c0 -9 -7 -14 -17 -12 -24 4 -27 23 -3 25 12 1 20 -4 20 -13z m205 6 c3 -5
-1 -10 -9 -10 -9 0 -16 5 -16 10 0 6 4 10 9 10 6 0 13 -4 16 -10z m-640 -10
c-3 -5 -15 -10 -26 -10 -10 0 -19 5 -19 10 0 6 12 10 26 10 14 0 23 -4 19 -10z
m335 1 c0 -12 -20 -25 -27 -18 -7 7 6 27 18 27 5 0 9 -4 9 -9z m-3752 -13 c19
-19 14 -28 -13 -28 -24 0 -34 18 -18 33 9 10 17 9 31 -5z m2780 -11 c2 -12 -3
-17 -17 -17 -12 0 -21 6 -21 13 0 31 32 34 38 4z m2191 14 c9 -6 10 -11 3 -15
-6 -4 -9 -13 -5 -21 5 -16 -21 -20 -51 -9 -16 6 -22 35 -9 47 9 10 45 8 62 -2z
m-1989 -11 c0 -5 -9 -10 -20 -10 -11 0 -20 5 -20 10 0 6 9 10 20 10 11 0 20
-4 20 -10z m-3742 -16 c-9 -10 -21 -13 -29 -8 -9 5 -8 9 7 15 31 12 39 10 22
-7z m150 4 c-6 -18 -28 -21 -28 -4 0 9 7 16 16 16 9 0 14 -5 12 -12z m532 -9
c0 -5 -4 -9 -10 -9 -5 0 -10 7 -10 16 0 8 5 12 10 9 6 -3 10 -10 10 -16z m308
4 c5 -17 -26 -29 -40 -15 -6 6 -7 15 -3 22 9 14 37 9 43 -7z m372 2 c11 -13 8
-15 -13 -15 -26 0 -42 12 -30 24 11 11 30 7 43 -9z m-749 -8 c-1 -12 -15 -9
-19 4 -3 6 1 10 8 8 6 -3 11 -8 11 -12z m2539 -3 c0 -10 -7 -14 -22 -12 -32 5
-35 28 -4 28 17 0 26 -5 26 -16z m300 1 c11 -13 10 -14 -4 -9 -9 3 -16 10 -16
15 0 13 6 11 20 -6z m-5720 -5 c0 -5 -7 -10 -15 -10 -8 0 -15 5 -15 10 0 6 7
10 15 10 8 0 15 -4 15 -10z m2798 -7 c-2 -10 -10 -18 -18 -18 -8 0 -16 8 -18
18 -2 12 3 17 18 17 15 0 20 -5 18 -17z m318 6 c9 -16 -12 -33 -31 -25 -14 5
-15 9 -5 21 15 18 26 19 36 4z m309 -10 c-4 -5 -13 -9 -22 -9 -13 0 -13 3 -3
15 13 15 35 11 25 -6z m3359 -18 c-6 -6 -54 21 -54 30 0 5 13 0 29 -9 16 -9
28 -19 25 -21z m-6649 19 c3 -5 1 -10 -4 -10 -6 0 -11 5 -11 10 0 6 2 10 4 10
3 0 8 -4 11 -10z m5555 0 c0 -5 -7 -10 -16 -10 -8 0 -12 5 -9 10 3 6 10 10 16
10 5 0 9 -4 9 -10z m1525 0 c3 -5 1 -10 -4 -10 -6 0 -11 5 -11 10 0 6 2 10 4
10 3 0 8 -4 11 -10z m-4595 -10 c0 -5 -7 -10 -15 -10 -8 0 -15 5 -15 10 0 6 7
10 15 10 8 0 15 -4 15 -10z m2881 -12 c-5 -13 -17 -23 -27 -23 -28 0 -23 28 6
36 14 4 26 7 27 8 1 1 -1 -9 -6 -21z m-3031 -3 c0 -9 -9 -15 -25 -15 -16 0
-25 6 -25 15 0 9 9 15 25 15 16 0 25 -6 25 -15z m220 -6 c0 -5 -7 -9 -15 -9
-15 0 -20 12 -9 23 8 8 24 -1 24 -14z m-1203 -43 c-4 -9 -11 -16 -18 -16 -6 0
-9 7 -5 15 3 8 -2 18 -11 23 -9 6 -13 14 -8 22 11 17 50 -23 42 -44z m1543 39
c0 -9 -9 -15 -25 -15 -24 0 -32 10 -18 23 12 13 43 7 43 -8z m460 1 c0 -17
-27 -29 -35 -16 -4 6 -3 15 0 20 9 15 35 12 35 -4z m1330 4 c0 -5 -5 -10 -11
-10 -5 0 -7 5 -4 10 3 6 8 10 11 10 2 0 4 -4 4 -10z m890 -20 c0 -33 -11 -38
-30 -15 -10 12 -10 18 0 30 19 23 30 18 30 -15z m-5660 4 c0 -9 -7 -14 -17
-12 -25 5 -28 28 -4 28 12 0 21 -6 21 -16z m2817 0 c5 -15 -20 -24 -37 -14 -7
4 -9 13 -5 19 8 14 37 11 42 -5z m313 -4 c0 -8 -24 -20 -41 -20 -14 0 -11 28
4 33 15 5 37 -2 37 -13z m148 3 c-4 -20 -35 -30 -50 -15 -15 15 0 32 28 32 19
0 25 -5 22 -17z m1729 9 c22 -14 -14 -55 -42 -48 -15 4 -25 1 -29 -9 -3 -9 0
-15 9 -15 8 0 15 -4 15 -10 0 -5 -11 -10 -24 -10 -13 0 -26 -4 -28 -9 -1 -5
-14 -3 -28 4 l-25 14 23 1 c13 0 21 4 18 9 -7 10 71 81 88 81 6 0 17 -4 23 -8z
m-2507 -12 c0 -5 -2 -10 -4 -10 -3 0 -8 5 -11 10 -3 6 -1 10 4 10 6 0 11 -4
11 -10z m3363 3 c-7 -2 -19 -2 -25 0 -7 3 -2 5 12 5 14 0 19 -2 13 -5z m-3173
-18 c0 -8 -9 -15 -20 -15 -20 0 -26 11 -13 23 12 13 33 7 33 -8z m960 5 c0 -5
-7 -10 -15 -10 -8 0 -15 5 -15 10 0 6 7 10 15 10 8 0 15 -4 15 -10z m-1320
-15 c0 -16 -35 -21 -44 -6 -8 12 4 21 26 21 10 0 18 -7 18 -15z m240 -5 c0 -5
-5 -10 -11 -10 -5 0 -7 5 -4 10 3 6 8 10 11 10 2 0 4 -4 4 -10z m2507 -6 c5
-14 -22 -25 -42 -18 -12 5 -13 9 -4 21 14 16 40 14 46 -3z m1783 6 c0 -5 -7
-10 -15 -10 -8 0 -15 5 -15 10 0 6 7 10 15 10 8 0 15 -4 15 -10z m-4106 -9 c9
-15 -23 -36 -36 -23 -5 5 -7 15 -4 21 9 13 33 14 40 2z m310 -6 c-4 -8 -10
-15 -15 -15 -5 0 -9 7 -9 15 0 8 7 15 15 15 9 0 12 -6 9 -15z m136 0 c0 -9 -9
-15 -25 -15 -24 0 -32 10 -18 23 12 13 43 7 43 -8z m145 -5 c-10 -11 -23 -20
-28 -20 -13 0 24 39 37 39 5 1 1 -8 -9 -19z m189 12 c2 -4 -2 -16 -10 -27 -17
-22 -39 -8 -28 18 6 17 29 23 38 9z m-619 -22 c0 -8 -10 -16 -22 -18 -22 -3
-32 16 -16 32 12 11 38 2 38 -14z m1267 -2 c-7 -7 -12 -8 -12 -2 0 14 12 26
19 19 2 -3 -1 -11 -7 -17z m-1605 -20 c-3 -8 -6 -5 -6 6 -1 11 2 17 5 13 3 -3
4 -12 1 -19z m2582 9 c6 -8 8 -17 4 -20 -7 -8 -33 11 -33 24 0 13 16 11 29 -4z
m-2029 -12 c0 -9 -9 -15 -21 -15 -18 0 -19 2 -9 15 7 8 16 15 21 15 5 0 9 -7
9 -15z m120 -11 c0 -8 -9 -14 -20 -14 -22 0 -28 26 -7 33 16 6 27 -1 27 -19z
m2290 16 c0 -5 -2 -10 -4 -10 -3 0 -8 5 -11 10 -3 6 -1 10 4 10 6 0 11 -4 11
-10z m-3370 -85 c0 -37 -28 -31 -46 10 -7 19 -14 45 -14 57 1 22 2 21 30 -10
17 -18 30 -43 30 -57z m1190 64 c0 -5 -7 -9 -15 -9 -9 0 -12 6 -9 15 6 15 24
11 24 -6z m-522 -6 c5 -16 -22 -27 -44 -19 -13 5 -14 9 -4 22 15 17 41 15 48
-3z m2167 2 c0 -5 -10 -11 -22 -13 -16 -2 -23 2 -23 13 0 11 7 15 23 13 12 -2
22 -7 22 -13z m-1986 -4 c18 -11 5 -31 -20 -31 -18 0 -26 20 -12 33 8 9 15 9
32 -2z m2471 -1 c0 -5 -4 -10 -10 -10 -5 0 -10 5 -10 10 0 6 5 10 10 10 6 0
10 -4 10 -10z m-2290 -25 c0 -8 -6 -15 -14 -15 -17 0 -28 14 -19 24 12 12 33
6 33 -9z m4745 5 c3 -5 2 -10 -4 -10 -5 0 -13 5 -16 10 -3 6 -2 10 4 10 5 0
13 -4 16 -10z m-4615 -10 c0 -15 -38 -32 -45 -20 -3 5 -3 15 0 20 8 13 45 13
45 0z m1925 -10 c3 -5 1 -10 -4 -10 -6 0 -11 -7 -11 -16 0 -14 -3 -14 -15 -4
-12 10 -13 16 -4 26 14 17 25 18 34 4z m-2680 -45 c14 -17 25 -36 25 -40 0
-16 33 -45 51 -45 11 0 24 9 31 20 7 11 22 20 34 20 12 0 24 7 28 15 9 25 95
19 130 -9 26 -22 27 -24 10 -34 -12 -7 -25 -7 -37 0 -27 14 -64 2 -83 -27 -38
-58 23 -120 108 -111 55 6 63 -2 59 -55 -2 -29 3 -41 25 -58 51 -40 112 -23
150 44 15 27 34 10 34 -31 0 -37 4 -34 -155 -138 -44 -29 -172 -114 -284 -189
-250 -168 -308 -190 -381 -146 -51 32 -337 265 -397 326 -84 82 -75 102 95
207 50 32 95 64 100 71 4 7 28 26 54 41 26 16 79 51 118 77 39 26 78 51 88 54
9 3 28 14 42 24 26 18 80 27 113 20 10 -2 29 -18 42 -36z m373 23 c4 -19 -20
-29 -38 -18 -11 7 -12 11 0 25 15 18 34 15 38 -7z m155 -3 c-1 -5 -8 -14 -17
-20 -18 -11 -42 7 -31 25 8 13 51 9 48 -5z m305 -7 c3 -17 -35 -32 -44 -17 -8
13 16 41 30 36 6 -2 12 -11 14 -19z m-143 2 c3 -6 -1 -13 -10 -16 -19 -8 -30
0 -20 15 8 14 22 14 30 1z m2010 0 c3 -5 1 -10 -4 -10 -6 0 -11 5 -11 10 0 6
2 10 4 10 3 0 8 -4 11 -10z m-127 -17 c2 -8 -5 -13 -17 -13 -21 0 -35 13 -24
24 10 10 36 3 41 -11z m2742 7 c0 -5 -2 -10 -4 -10 -3 0 -8 5 -11 10 -3 6 -1
10 4 10 6 0 11 -4 11 -10z m-4545 -41 c0 -7 -8 -15 -17 -17 -18 -3 -25 18 -11
32 10 10 28 1 28 -15z m151 9 c4 -6 -1 -17 -12 -25 -15 -11 -20 -11 -32 1 -8
8 -11 19 -8 25 9 14 43 14 52 -1z m1713 -1 c13 -17 5 -27 -24 -27 -27 0 -35 8
-28 26 7 18 37 18 52 1z m2607 -15 c-9 -9 -37 8 -31 18 5 8 11 7 21 -1 8 -6
12 -14 10 -17z m-3886 2 c0 -7 -27 -34 -34 -34 -4 0 -1 9 6 20 12 19 28 27 28
14z m-937 -18 c7 -19 -1 -26 -30 -26 -22 0 -31 19 -16 33 11 12 41 7 46 -7z
m140 -21 c1 -5 -6 -11 -15 -13 -11 -2 -18 3 -18 13 0 17 30 18 33 0z m291 6
c8 -13 -21 -34 -39 -27 -20 7 -8 36 15 36 11 0 21 -4 24 -9z m150 -10 c9 -13
-19 -32 -38 -25 -17 6 -20 16 -9 27 9 10 41 9 47 -2z m-713 -24 c-13 -13 -26
-3 -16 12 3 6 11 8 17 5 6 -4 6 -10 -1 -17z m774 13 c3 -5 -1 -10 -9 -10 -9 0
-16 5 -16 10 0 6 4 10 9 10 6 0 13 -4 16 -10z m1651 -11 c7 -12 -15 -31 -31
-26 -5 2 -11 11 -13 20 -4 19 32 24 44 6z m-2226 -12 c0 -7 -5 -18 -11 -24
-18 -18 -1 -33 34 -30 23 1 32 -3 35 -16 3 -12 -5 -19 -27 -23 -16 -4 -38 -15
-47 -25 -19 -21 -48 -26 -42 -7 3 7 15 15 29 18 21 5 22 7 6 13 -10 4 -34 7
-52 7 -42 0 -55 27 -20 40 14 5 25 14 25 19 0 16 31 41 51 41 10 0 19 -6 19
-13z m437 -3 c9 -23 -13 -40 -32 -24 -12 10 -13 16 -4 26 15 18 28 18 36 -2z
m4263 -5 c0 -5 -4 -9 -10 -9 -5 0 -10 7 -10 16 0 8 5 12 10 9 6 -3 10 -10 10
-16z m-4112 -31 c4 -19 -35 -35 -50 -20 -6 6 -8 18 -4 27 8 21 50 16 54 -7z
m-79 -61 c13 -16 5 -27 -21 -27 -18 0 -25 20 -11 33 10 10 19 8 32 -6z m-1804
-76 c15 -30 11 -61 -7 -61 -5 0 -6 5 -3 10 4 6 0 22 -9 35 -9 13 -16 29 -16
35 0 20 20 9 35 -19z m2513 -71 c3 -39 -31 -104 -51 -97 -19 6 -19 98 1 120
24 27 47 17 50 -23z m1202 37 c0 -8 -129 -134 -134 -130 -2 3 26 33 62 69 64
61 72 67 72 61z m-326 -27 c28 -10 35 -37 13 -46 -20 -7 -67 13 -67 30 0 8 6
17 13 19 6 3 13 6 14 6 1 1 13 -3 27 -9z m-489 -60 c22 -25 13 -50 -19 -50
-30 0 -40 14 -32 46 8 29 27 31 51 4z m560 -30 c3 -5 -1 -10 -9 -10 -9 0 -16
5 -16 10 0 6 4 10 9 10 6 0 13 -4 16 -10z m-96 -19 c17 -11 5 -31 -19 -31 -21
0 -34 15 -25 30 8 12 25 13 44 1z m-4425 -32 c-8 -14 -34 -11 -34 4 0 8 3 17
7 20 9 9 34 -13 27 -24z m4511 10 c12 -19 -5 -23 -22 -6 -16 16 -16 17 -1 17
9 0 20 -5 23 -11z m-577 -16 c-4 -22 -22 -20 -26 1 -2 10 3 16 13 16 10 0 15
-7 13 -17z m705 -11 c19 -20 7 -42 -23 -42 -30 0 -42 22 -23 42 9 10 19 18 23
18 4 0 14 -8 23 -18z m-273 -28 c0 -8 -9 -14 -20 -14 -19 0 -27 19 -14 33 10
9 34 -4 34 -19z m-1675 -17 c22 -17 12 -37 -20 -37 -27 0 -39 14 -31 35 7 19
27 19 51 2z m355 -17 c0 -5 -4 -10 -10 -10 -5 0 -10 5 -10 10 0 6 5 10 10 10
6 0 10 -4 10 -10z m240 -20 c28 -25 31 -32 20 -45 -20 -24 -54 -18 -79 16 -18
24 -20 33 -11 45 18 21 32 17 70 -16z m-500 -41 c0 -5 -15 -16 -32 -24 -28
-11 -35 -11 -47 0 -16 16 -7 33 23 45 22 8 56 -4 56 -21z m710 -30 c0 -14 -5
-19 -17 -17 -26 5 -29 38 -4 38 15 0 21 -6 21 -21z m560 -9 c0 -5 -5 -12 -11
-16 -14 -8 -33 11 -25 25 7 11 36 4 36 -9z m-1580 -20 c16 -17 34 -46 40 -65
10 -30 9 -39 -10 -65 -21 -30 -49 -50 -69 -50 -8 0 -9 18 -5 54 5 40 2 66 -10
96 -26 66 4 83 54 30z m-1489 -33 c-1 -12 -15 -9 -19 4 -3 6 1 10 8 8 6 -3 11
-8 11 -12z m2581 -9 c-7 -7 -12 -8 -12 -2 0 14 12 26 19 19 2 -3 -1 -11 -7
-17z m578 -24 c0 -8 -9 -14 -20 -14 -22 0 -28 26 -7 33 16 6 27 -1 27 -19z
m-985 -23 c3 -5 1 -12 -4 -15 -12 -8 -41 3 -41 15 0 12 37 12 45 0z m1085 -17
c11 -12 11 -18 -2 -31 -20 -19 -58 -9 -58 17 0 30 40 40 60 14z m-200 -109
c38 -20 63 -68 55 -105 -7 -31 -74 -93 -120 -110 -72 -28 -177 3 -213 62 -23
37 -30 74 -12 63 6 -3 10 -14 10 -24 0 -10 7 -24 15 -31 13 -10 19 -9 36 6 32
29 147 27 188 -3 38 -29 39 -29 52 4 15 40 3 89 -31 123 -32 33 -25 38 20 15z
m-986 -169 c9 -14 16 -34 16 -45 0 -24 -55 -65 -75 -57 -19 7 -19 17 -1 41 12
17 12 24 -1 48 -11 22 -12 32 -3 43 15 17 40 5 64 -30z m586 15 c0 -14 -28
-33 -39 -27 -16 10 -1 36 20 36 10 0 19 -4 19 -9z m-290 -29 c27 -22 19 -42
-15 -42 -50 0 -69 22 -43 48 17 17 32 15 58 -6z m-62 -106 l21 -25 -35 -11
c-39 -13 -64 -1 -64 30 0 38 46 42 78 6z m466 8 c8 -21 -11 -44 -36 -44 -24 0
-34 26 -18 45 16 20 46 19 54 -1z m236 -24 c0 -13 -7 -20 -18 -20 -24 0 -32 8
-25 26 8 22 43 17 43 -6z m-2885 -75 c0 -30 -39 -27 -43 3 -3 20 0 23 20 20
15 -2 23 -10 23 -23z m2129 -7 c8 -14 7 -21 -6 -34 -30 -30 -75 9 -48 42 16
18 39 15 54 -8z m676 -3 c19 -23 5 -48 -22 -40 -32 10 -42 21 -35 39 8 20 41
21 57 1z m-2743 -36 c17 -17 4 -39 -22 -39 -23 0 -40 24 -29 41 7 13 38 11 51
-2z m-187 -29 c0 -24 -26 -38 -42 -22 -16 16 -2 42 22 42 13 0 20 -7 20 -20z"/>
<path d="M5550 5140 c0 -5 7 -10 16 -10 8 0 12 5 9 10 -3 6 -10 10 -16 10 -5
0 -9 -4 -9 -10z"/>
<path d="M5480 5120 c0 -5 10 -10 23 -10 18 0 19 2 7 10 -19 13 -30 13 -30 0z"/>
<path d="M5590 5100 c0 -5 4 -10 9 -10 6 0 13 5 16 10 3 6 -1 10 -9 10 -9 0
-16 -4 -16 -10z"/>
<path d="M6555 4920 c-3 -5 0 -10 9 -10 8 0 21 -3 30 -6 11 -4 16 -1 16 10 0
18 -45 23 -55 6z"/>
<path d="M8590 4176 c0 -2 7 -6 15 -10 8 -3 15 -1 15 4 0 6 -7 10 -15 10 -8 0
-15 -2 -15 -4z"/>
<path d="M6325 4441 c11 -10 189 -85 395 -165 206 -81 431 -169 500 -196 138
-54 180 -66 180 -54 0 5 -71 35 -158 68 -321 120 -878 338 -899 352 -31 20
-41 17 -18 -5z"/>
<path d="M6618 4403 c7 -3 16 -2 19 1 4 3 -2 6 -13 5 -11 0 -14 -3 -6 -6z"/>
<path d="M5830 4375 c0 -9 5 -15 11 -13 6 2 11 8 11 13 0 5 -5 11 -11 13 -6 2
-11 -4 -11 -13z"/>
<path d="M5920 4380 c0 -5 5 -10 10 -10 6 0 10 5 10 10 0 6 -4 10 -10 10 -5 0
-10 -4 -10 -10z"/>
<path d="M5776 4353 c-11 -11 -6 -23 9 -23 8 0 15 4 15 9 0 13 -16 22 -24 14z"/>
<path d="M5985 4350 c3 -5 8 -10 11 -10 2 0 4 5 4 10 0 6 -5 10 -11 10 -5 0
-7 -4 -4 -10z"/>
<path d="M6075 4340 c3 -5 8 -10 11 -10 2 0 4 5 4 10 0 6 -5 10 -11 10 -5 0
-7 -4 -4 -10z"/>
<path d="M5880 4291 c-14 -4 -131 -64 -260 -133 -129 -69 -306 -162 -392 -207
-87 -45 -160 -86 -163 -92 -14 -22 9 -52 58 -74 137 -62 430 -195 692 -316
263 -120 296 -133 358 -137 42 -3 79 1 100 9 53 22 747 488 747 503 0 7 -8 20
-18 30 -29 25 -1007 416 -1055 421 -23 2 -53 1 -67 -4z m144 -376 c11 -8 16
-18 12 -22 -3 -4 -16 3 -28 15 -25 25 -13 29 16 7z m-54 -20 c0 -19 -24 -30
-41 -19 -9 5 -7 11 6 21 24 17 35 17 35 -2z m81 -31 c-28 -23 -52 -30 -64 -18
-7 8 75 53 86 47 4 -2 -6 -15 -22 -29z m79 -3 c0 -5 -10 -16 -22 -24 -20 -14
-21 -16 -5 -16 10 -1 26 3 36 8 20 11 61 4 61 -11 0 -6 -11 -7 -25 -4 -27 7
-28 6 -19 -18 8 -21 20 -20 44 4 11 11 26 17 35 14 20 -8 19 -20 -2 -28 -10
-3 -25 -10 -33 -16 -12 -9 -31 -5 -82 19 -38 17 -68 34 -68 38 0 10 51 42 68
43 6 0 12 -4 12 -9z m-290 -31 c0 -5 -2 -10 -4 -10 -3 0 -8 5 -11 10 -3 6 -1
10 4 10 6 0 11 -4 11 -10z m120 -17 c0 -12 -2 -12 -15 1 -8 8 -15 17 -15 20 0
3 7 3 15 0 8 -4 15 -13 15 -21z m420 -2 c0 -12 -28 -22 -34 -12 -3 5 -3 11 1
15 9 9 33 7 33 -3z m-590 -12 c0 -8 5 -8 15 1 18 15 20 4 2 -14 -10 -11 -17
-11 -30 -1 -9 6 -14 15 -10 18 10 11 23 8 23 -4z m120 1 c8 -5 11 -12 7 -16
-4 -4 -15 0 -24 9 -18 18 -8 23 17 7z m95 1 c3 -5 1 -12 -4 -15 -5 -3 -11 1
-15 9 -6 16 9 21 19 6z m-149 -26 c-9 -9 -21 -13 -27 -10 -7 5 -2 12 13 19 29
16 35 12 14 -9z m439 16 c3 -5 19 -12 35 -16 16 -4 32 -11 36 -16 8 -14 -43
-62 -56 -54 -8 5 -4 12 9 22 12 8 21 18 21 24 0 17 -29 9 -44 -13 -9 -12 -19
-19 -22 -15 -4 4 1 16 11 27 25 28 10 38 -18 12 -41 -39 -65 -25 -24 15 24 23
42 29 52 14z m-231 -16 c11 -8 16 -18 12 -22 -4 -4 -11 -2 -15 6 -5 7 -12 12
-17 11 -5 -1 -10 3 -12 9 -5 15 9 13 32 -4z m-319 -5 l20 -9 -20 0 c-11 0 -27
4 -35 9 -13 9 -13 10 0 9 8 0 24 -4 35 -9z m214 -30 c-10 -28 -39 -43 -39 -20
0 6 4 10 9 10 5 0 11 9 14 20 3 11 10 20 16 20 7 0 7 -9 0 -30z m51 -6 c0 -3
-7 -1 -15 6 -8 7 -15 17 -15 22 0 5 7 3 15 -6 8 -8 15 -18 15 -22z m-205 16
c3 6 11 7 17 4 7 -5 3 -11 -11 -16 -25 -9 -41 -3 -41 14 0 7 5 6 14 -1 10 -8
16 -9 21 -1z m95 1 c0 -5 -6 -11 -14 -14 -22 -9 -9 -46 14 -40 10 3 21 0 24
-6 4 -6 16 -11 27 -11 10 0 19 -5 19 -11 0 -6 9 -8 20 -4 25 8 27 -11 2 -24
-24 -13 -142 43 -142 67 0 14 -2 14 -9 3 -5 -7 -14 -10 -20 -7 -17 11 -3 26
24 26 12 0 25 7 29 15 6 16 26 21 26 6z m251 -12 c27 -12 49 -24 49 -27 0 -2
-10 -13 -22 -23 -11 -11 -18 -19 -13 -19 4 0 -4 -12 -19 -27 -14 -14 -30 -22
-34 -18 -4 4 -1 10 6 12 6 3 12 11 12 19 0 8 5 14 10 14 6 0 10 7 10 15 0 8 5
15 10 15 6 0 10 5 10 10 0 6 -9 10 -20 10 -15 0 -20 -7 -20 -25 0 -14 -8 -29
-19 -35 -26 -13 -54 -13 -46 1 4 6 13 8 21 5 8 -3 14 -1 14 4 0 6 -4 10 -9 10
-5 0 -16 3 -25 6 -11 4 -16 0 -17 -12 -1 -11 -5 -3 -9 16 -6 23 -5 36 2 39 6
2 5 7 -3 12 -9 6 -2 7 19 3 21 -4 32 -3 32 5 0 15 4 14 61 -10z m303 -19 c7
-7 1 -10 -17 -10 -15 0 -26 -5 -24 -11 3 -16 -28 -33 -47 -26 -20 8 -21 37 -1
37 8 0 15 7 15 16 0 13 7 15 32 10 18 -3 37 -11 42 -16z m-441 -21 l22 -20
-28 10 c-16 6 -33 9 -38 5 -5 -3 -9 2 -9 10 0 22 27 20 53 -5z m253 -15 c18
-14 18 -15 -6 -8 -31 8 -50 24 -29 24 8 0 24 -7 35 -16z m-41 -14 c3 -5 -1
-10 -9 -10 -9 0 -16 5 -16 10 0 6 4 10 9 10 6 0 13 -4 16 -10z m67 -23 c-7 -8
-9 -17 -5 -21 4 -4 0 -4 -10 0 -21 8 -21 14 0 30 22 15 30 10 15 -9z m-96 -12
c-9 -7 -16 -17 -16 -24 0 -13 -16 -15 -24 -2 -3 5 1 11 9 15 8 3 15 12 15 20
0 10 6 13 16 9 16 -6 16 -7 0 -18z m-153 -2 c8 -8 -25 -33 -35 -27 -4 3 -2 11
5 19 14 16 21 18 30 8z m207 -13 c8 -5 11 -13 6 -17 -5 -4 -11 -2 -13 5 -3 6
-9 10 -13 7 -5 -3 -11 -1 -15 5 -8 13 15 13 35 0z m-40 -20 c0 -5 8 -10 17
-10 9 0 14 -3 10 -6 -8 -8 -47 5 -47 17 0 5 5 9 10 9 6 0 10 -4 10 -10z m-86
-24 c-21 -15 -30 -14 -19 3 3 6 14 11 23 11 13 0 13 -2 -4 -14z m61 -27 c-4
-5 -16 -9 -28 -8 -12 0 -17 3 -10 5 7 3 9 12 6 21 -5 13 -3 14 16 4 12 -7 19
-16 16 -22z"/>
<path d="M6110 3731 c0 -9 -9 -11 -30 -6 -34 8 -42 -10 -9 -20 22 -7 59 18 46
31 -4 4 -7 2 -7 -5z"/>
<path d="M7170 4200 c0 -5 5 -10 11 -10 5 0 7 5 4 10 -3 6 -8 10 -11 10 -2 0
-4 -4 -4 -10z"/>
<path d="M5260 4009 c0 -5 5 -7 10 -4 6 3 10 8 10 11 0 2 -4 4 -10 4 -5 0 -10
-5 -10 -11z"/>
<path d="M5235 4000 c-3 -5 -1 -10 4 -10 6 0 11 5 11 10 0 6 -2 10 -4 10 -3 0
-8 -4 -11 -10z"/>
<path d="M7000 4000 c0 -5 9 -10 20 -10 11 0 20 5 20 10 0 6 -9 10 -20 10 -11
0 -20 -4 -20 -10z"/>
<path d="M7172 3921 c4 -13 18 -16 19 -4 0 4 -5 9 -11 12 -7 2 -11 -2 -8 -8z"/>
<path d="M7088 3894 c36 -16 40 -28 15 -43 -10 -5 -15 -13 -10 -17 7 -8 47 23
47 37 0 11 -55 39 -72 38 -7 0 2 -7 20 -15z"/>
<path d="M7215 3880 c-3 -6 1 -13 10 -16 19 -8 30 0 20 15 -8 14 -22 14 -30 1z"/>
<path d="M7180 3850 c0 -5 5 -10 10 -10 6 0 10 5 10 10 0 6 -4 10 -10 10 -5 0
-10 -4 -10 -10z"/>
<path d="M7235 3810 c3 -5 10 -10 16 -10 5 0 9 5 9 10 0 6 -7 10 -16 10 -8 0
-12 -4 -9 -10z"/>
<path d="M7170 3790 c0 -5 9 -10 20 -10 11 0 20 5 20 10 0 6 -9 10 -20 10 -11
0 -20 -4 -20 -10z"/>
<path d="M5070 3780 c0 -5 5 -10 11 -10 5 0 7 5 4 10 -3 6 -8 10 -11 10 -2 0
-4 -4 -4 -10z"/>
<path d="M5060 3496 c0 -17 14 -29 23 -20 8 8 -3 34 -14 34 -5 0 -9 -6 -9 -14z"/>
<path d="M5145 3470 c-3 -5 -1 -10 4 -10 6 0 11 5 11 10 0 6 -2 10 -4 10 -3 0
-8 -4 -11 -10z"/>
<path d="M5100 3456 c0 -2 7 -7 16 -10 8 -3 12 -2 9 4 -6 10 -25 14 -25 6z"/>
<path d="M5070 3446 c0 -4 7 -14 15 -22 8 -9 15 -11 15 -6 0 5 -7 15 -15 22
-8 7 -15 9 -15 6z"/>
<path d="M6396 3263 c-12 -12 -5 -23 14 -23 11 0 20 4 20 9 0 11 -26 22 -34
14z"/>
<path d="M6045 3240 c-4 -7 -3 -16 3 -22 14 -14 45 -2 40 15 -6 16 -34 21 -43
7z"/>
<path d="M6290 3206 c0 -10 9 -16 21 -16 24 0 21 23 -4 28 -10 2 -17 -3 -17
-12z"/>
<path d="M6351 3021 c-12 -12 -41 -22 -76 -26 -72 -9 -115 -42 -115 -89 0
-103 219 -132 270 -36 6 12 20 30 31 41 44 44 7 129 -57 129 -20 0 -42 -8 -53
-19z m-127 -124 c-11 -29 23 -40 98 -32 65 6 70 5 59 -9 -16 -19 -101 -22
-134 -5 -34 18 -57 41 -51 50 9 14 34 10 28 -4z"/>
<path d="M8087 3697 c-6 -17 3 -31 26 -40 23 -9 22 15 -2 37 -15 14 -20 14
-24 3z"/>
<path d="M8877 3474 c-6 -6 16 -34 26 -34 3 0 3 9 0 20 -5 20 -15 25 -26 14z"/>
<path d="M8160 3289 c0 -5 5 -7 12 -3 7 4 8 3 4 -5 -5 -8 -12 -9 -20 -2 -9 7
-19 6 -34 -5 -26 -18 -28 -39 -6 -48 9 -4 15 -9 12 -12 -3 -2 -17 0 -31 5 -21
8 -31 5 -61 -17 -22 -17 -35 -36 -36 -49 0 -14 -6 -23 -16 -23 -11 0 -14 4 -8
13 5 7 2 5 -7 -5 -9 -9 -19 -14 -23 -11 -3 4 -6 -2 -6 -11 0 -12 5 -16 15 -12
10 4 15 -1 16 -17 0 -12 3 -16 6 -9 5 14 33 17 33 3 0 -27 -53 -35 -70 -11
-13 19 -74 -5 -111 -42 -42 -43 -49 -86 -13 -80 16 2 17 1 4 -7 -12 -9 -11
-11 8 -11 12 0 41 -9 63 -21 23 -11 64 -22 93 -25 50 -4 55 -2 90 32 20 19 36
41 36 49 0 18 -16 20 -24 3 -3 -7 -4 1 -3 17 1 20 -2 29 -10 28 -22 -5 -14 24
7 30 11 3 20 1 20 -4 0 -5 8 -9 18 -9 10 0 24 -6 30 -12 10 -10 15 -10 22 1 7
13 11 13 25 1 15 -13 17 -11 13 10 -2 18 3 28 20 35 12 5 20 16 17 22 -2 7 0
13 5 13 5 0 12 -9 15 -21 11 -35 17 -13 7 25 -6 21 -7 34 -1 31 5 -4 9 -2 9 3
0 5 -16 17 -35 26 -19 9 -35 21 -35 26 0 5 -6 7 -12 5 -7 -3 -20 0 -28 5 -13
8 -12 12 6 30 11 12 30 22 42 23 25 1 30 17 6 17 -8 0 -22 7 -30 15 -18 17
-34 20 -34 4z m-3 -45 c-3 -3 -12 -4 -19 -1 -8 3 -5 6 6 6 11 1 17 -2 13 -5z
m-37 -174 c0 -5 -2 -10 -4 -10 -3 0 -8 5 -11 10 -3 6 -1 10 4 10 6 0 11 -4 11
-10z m-86 -6 c19 -7 21 -40 4 -50 -7 -5 -9 -2 -5 9 4 11 2 14 -9 10 -9 -3 -14
2 -14 16 0 23 1 24 24 15z m36 -109 c0 -8 -2 -15 -4 -15 -2 0 -6 7 -10 15 -3
8 -1 15 4 15 6 0 10 -7 10 -15z"/>
<path d="M8826 3225 c4 -8 10 -12 15 -9 11 6 2 24 -11 24 -5 0 -7 -7 -4 -15z"/>
<path d="M8410 3210 c0 -5 5 -10 10 -10 6 0 10 5 10 10 0 6 -4 10 -10 10 -5 0
-10 -4 -10 -10z"/>
<path d="M8265 3180 c-3 -5 1 -10 9 -10 9 0 16 5 16 10 0 6 -4 10 -9 10 -6 0
-13 -4 -16 -10z"/>
<path d="M8703 3173 c9 -2 23 -2 30 0 6 3 -1 5 -18 5 -16 0 -22 -2 -12 -5z"/>
<path d="M7911 3114 c0 -11 3 -14 6 -6 3 7 2 16 -1 19 -3 4 -6 -2 -5 -13z"/>
<path d="M7870 3100 c0 -11 2 -20 4 -20 2 0 6 9 9 20 3 11 1 20 -4 20 -5 0 -9
-9 -9 -20z"/>
<path d="M8337 3102 c-21 -23 -21 -28 -1 -36 12 -4 14 -1 9 14 -7 22 5 26 23
8 13 -13 15 -8 6 16 -8 21 -17 20 -37 -2z"/>
<path d="M8290 3099 c0 -5 5 -7 10 -4 6 3 10 8 10 11 0 2 -4 4 -10 4 -5 0 -10
-5 -10 -11z"/>
<path d="M8751 3103 c-1 -7 -8 -13 -16 -13 -8 0 -15 -5 -15 -11 0 -5 5 -7 10
-4 6 3 10 0 10 -7 0 -8 5 -6 11 5 6 10 8 23 5 30 -3 9 -5 9 -5 0z"/>
<path d="M8610 3050 c0 -5 5 -10 11 -10 5 0 7 5 4 10 -3 6 -8 10 -11 10 -2 0
-4 -4 -4 -10z"/>
<path d="M8220 3032 c0 -15 11 -21 27 -15 12 5 12 7 1 14 -17 11 -28 11 -28 1z"/>
<path d="M8271 3024 c0 -11 3 -14 6 -6 3 7 2 16 -1 19 -3 4 -6 -2 -5 -13z"/>
<path d="M8300 2980 c0 -5 5 -10 11 -10 5 0 7 5 4 10 -3 6 -8 10 -11 10 -2 0
-4 -4 -4 -10z"/>
<path d="M7750 2970 c0 -5 7 -10 16 -10 8 0 12 5 9 10 -3 6 -10 10 -16 10 -5
0 -9 -4 -9 -10z"/>
<path d="M8265 2950 c-3 -5 3 -10 14 -10 12 0 21 5 21 10 0 6 -6 10 -14 10 -8
0 -18 -4 -21 -10z"/>
<path d="M8465 2950 c3 -5 8 -10 11 -10 2 0 4 5 4 10 0 6 -5 10 -11 10 -5 0
-7 -4 -4 -10z"/>
<path d="M8395 2940 c3 -5 11 -10 16 -10 6 0 7 5 4 10 -3 6 -11 10 -16 10 -6
0 -7 -4 -4 -10z"/>
<path d="M7760 2933 c0 -5 5 -14 12 -21 8 -8 9 -12 1 -12 -6 0 -13 6 -16 13
-2 6 -8 9 -12 4 -5 -4 -3 -13 3 -19 18 -18 14 -32 -4 -17 -14 11 -18 11 -28
-2 -6 -9 -17 -14 -23 -12 -7 3 -13 0 -13 -6 0 -6 13 -11 29 -11 17 0 32 -4 36
-10 8 -14 37 0 31 16 -3 7 1 17 8 23 19 16 14 55 -6 59 -10 2 -18 0 -18 -5z"/>
<path d="M8415 2910 c-3 -5 -1 -10 4 -10 6 0 11 5 11 10 0 6 -2 10 -4 10 -3 0
-8 -4 -11 -10z"/>
<path d="M7350 2830 c0 -5 7 -10 16 -10 8 0 12 5 9 10 -3 6 -10 10 -16 10 -5
0 -9 -4 -9 -10z"/>
<path d="M7690 2818 c0 -15 4 -16 25 -6 32 14 32 26 0 24 -16 -1 -25 -7 -25
-18z"/>
<path d="M7656 2821 c-3 -5 1 -11 9 -15 9 -3 15 0 15 9 0 16 -16 20 -24 6z"/>
<path d="M7626 2791 c-3 -5 -14 -7 -24 -4 -10 2 -26 -5 -37 -17 -18 -20 -18
-20 1 -18 10 2 19 -1 19 -7 0 -5 -15 -9 -32 -7 -26 2 -31 0 -27 -13 8 -21 -13
-19 -25 3 -9 16 -10 16 -17 -2 -4 -11 -2 -21 7 -27 12 -7 11 -9 -1 -9 -9 0
-22 6 -30 13 -12 10 -12 9 -1 -5 7 -9 9 -22 5 -29 -4 -7 3 -20 17 -31 16 -14
18 -18 7 -14 -10 3 -18 1 -18 -4 0 -6 5 -10 10 -10 6 0 10 -5 10 -11 0 -8 -4
-8 -12 -2 -26 20 -66 24 -82 7 -18 -17 -22 -39 -6 -29 6 3 10 1 10 -5 0 -6
-10 -10 -22 -8 -18 2 -22 -1 -20 -17 5 -25 0 -22 46 -30 29 -6 37 -5 31 4 -4
8 1 14 14 18 12 3 21 9 21 14 0 15 20 10 47 -11 32 -25 34 -25 66 0 29 23 27
45 -5 53 -23 6 -53 -17 -43 -33 3 -6 -1 -7 -9 -4 -20 8 -20 18 -1 34 18 15 20
46 3 53 -8 3 -6 6 5 6 10 1 22 -9 27 -21 5 -13 9 -17 9 -10 1 7 12 18 26 24
22 10 23 12 8 23 -10 7 -23 11 -30 8 -7 -3 -13 2 -13 11 0 12 6 15 23 11 12
-3 31 1 42 9 11 9 14 16 8 16 -7 0 -13 7 -13 15 0 12 4 14 19 5 12 -6 22 -6
25 -1 8 13 -4 41 -18 41 -6 0 -4 5 4 10 13 8 13 10 -2 10 -9 0 -19 -4 -22 -9z
m-21 -81 c3 -5 1 -10 -4 -10 -6 0 -11 5 -11 10 0 6 2 10 4 10 3 0 8 -4 11 -10z
m-62 -35 c-3 -9 -8 -14 -10 -11 -3 3 -2 9 2 15 9 16 15 13 8 -4z m-23 -9 c0
-2 -7 -6 -15 -10 -8 -3 -15 -1 -15 4 0 6 7 10 15 10 8 0 15 -2 15 -4z"/>
<path d="M7825 2790 c3 -5 13 -10 21 -10 8 0 12 5 9 10 -3 6 -13 10 -21 10 -8
0 -12 -4 -9 -10z"/>
<path d="M7710 2786 c0 -2 7 -9 15 -16 12 -10 15 -10 15 4 0 9 -7 16 -15 16
-8 0 -15 -2 -15 -4z"/>
<path d="M7925 2779 c-8 -12 -5 -16 15 -21 15 -3 20 2 20 22 0 13 -27 13 -35
-1z"/>
<path d="M7293 2724 c-20 -9 -15 -31 8 -48 14 -9 18 -19 13 -28 -4 -7 9 3 29
22 20 19 33 38 29 42 -10 10 -64 18 -79 12z"/>
<path d="M7782 2708 c-7 -7 -12 -16 -12 -20 0 -13 63 -48 86 -48 24 0 54 29
54 53 0 22 -9 22 -26 0 -13 -17 -13 -17 -14 1 0 14 -3 16 -14 7 -13 -11 -46
-5 -57 11 -3 4 -10 3 -17 -4z"/>
<path d="M7650 2635 c7 -8 16 -15 21 -15 5 0 9 7 9 15 0 9 -9 15 -21 15 -18 0
-19 -2 -9 -15z"/>
<path d="M7175 2605 c-22 -20 -49 -35 -60 -34 -35 2 -46 -1 -40 -10 3 -5 -4
-13 -15 -16 -24 -8 -21 -31 4 -29 21 2 21 -10 -1 -27 -9 -8 -14 -9 -10 -3 4 7
0 17 -8 24 -12 10 -18 8 -32 -6 -16 -16 -16 -17 -1 -12 10 4 19 1 22 -8 9 -25
7 -27 -11 -13 -15 12 -16 12 -10 -3 3 -10 2 -18 -3 -18 -6 0 -10 6 -10 14 0 8
-4 18 -10 21 -6 4 -7 -1 -3 -11 5 -13 3 -16 -10 -11 -11 4 -17 1 -17 -8 0 -8
-6 -14 -12 -12 -7 1 -12 -4 -10 -10 1 -7 -7 -13 -17 -13 -34 0 -34 -21 0 -52
27 -25 38 -29 67 -24 38 6 54 16 34 23 -6 3 -10 9 -6 14 10 16 24 10 24 -11 0
-11 4 -20 9 -20 5 0 7 9 4 20 -7 25 5 26 23 3 13 -17 14 -17 7 2 -3 11 -11 26
-17 34 -8 11 -8 13 2 7 14 -9 16 6 2 20 -6 6 1 14 21 21 25 10 29 10 19 -2 -7
-8 -7 -15 -1 -19 15 -10 32 29 19 42 -8 8 -5 9 9 6 23 -6 63 22 63 45 0 8 3
12 6 9 9 -10 46 31 39 43 -4 5 -15 7 -26 4 -13 -5 -19 -2 -19 10 0 9 4 14 9
11 5 -3 12 1 15 10 14 35 1 32 -49 -11z m7 -40 c3 0 9 -3 13 -7 4 -3 0 -5 -9
-4 -9 1 -22 8 -29 16 -10 10 -9 11 3 4 8 -5 18 -9 22 -9z m-216 -184 c-4 -6
-12 -11 -18 -11 -7 0 -7 4 1 13 6 8 9 16 7 19 -1 3 1 2 7 -2 5 -5 6 -13 3 -19z"/>
<path d="M7589 2624 c-10 -13 -10 -17 2 -25 32 -20 61 0 39 26 -16 19 -24 19
-41 -1z"/>
<path d="M7119 2603 c-13 -16 -12 -17 4 -4 9 7 17 15 17 17 0 8 -8 3 -21 -13z"/>
<path d="M7230 2610 c0 -5 4 -10 9 -10 6 0 13 5 16 10 3 6 -1 10 -9 10 -9 0
-16 -4 -16 -10z"/>
<path d="M7277 2594 c-11 -11 3 -24 25 -24 17 0 18 2 8 15 -13 16 -23 19 -33
9z"/>
<path d="M7285 2410 c-3 -5 -1 -10 4 -10 6 0 11 5 11 10 0 6 -2 10 -4 10 -3 0
-8 -4 -11 -10z"/>
<path d="M6620 2398 c0 -4 9 -8 20 -8 11 0 20 4 20 8 0 4 -9 8 -20 8 -11 0
-20 -4 -20 -8z"/>
<path d="M6779 2353 c-13 -16 -12 -17 4 -4 16 13 21 21 13 21 -2 0 -10 -8 -17
-17z"/>
<path d="M6642 2334 c-12 -8 -20 -20 -17 -25 10 -15 25 -10 25 8 0 21 13 8 15
-15 1 -18 -12 -22 -71 -22 -18 0 -38 -8 -48 -19 -17 -18 -16 -20 1 -29 17 -10
17 -11 0 -17 -9 -4 -23 -2 -30 4 -19 15 -41 -7 -26 -26 13 -15 -2 -18 -17 -3
-5 5 -15 5 -23 1 -9 -6 0 -17 34 -40 52 -35 62 -37 92 -16 14 10 32 13 48 9
21 -5 25 -3 25 14 0 16 6 20 25 18 13 -2 22 1 19 6 -3 5 2 20 11 35 14 21 15
27 4 34 -19 12 -29 11 -29 -1 0 -5 -12 -10 -26 -10 -22 0 -25 2 -14 15 7 8 16
12 21 9 5 -3 12 2 15 10 5 14 9 13 31 -4 28 -21 53 -26 53 -10 0 6 5 10 11 10
11 0 39 24 39 34 0 3 -10 10 -21 17 -17 9 -23 8 -30 -2 -6 -10 -9 -8 -9 9 0
16 -6 22 -22 22 -13 0 -30 -4 -38 -10 -9 -5 -17 -5 -20 0 -3 6 -16 3 -28 -6z
m-42 -155 c0 -10 -33 -12 -43 -3 -3 3 0 12 6 19 12 13 37 2 37 -16z m-60 -19
c0 -5 -8 -10 -17 -10 -15 0 -16 2 -3 10 19 12 20 12 20 0z"/>
<path d="M6925 2311 c-6 -11 9 -23 19 -14 9 9 7 23 -3 23 -6 0 -12 -4 -16 -9z"/>
<path d="M7005 2290 c-8 -13 13 -40 30 -40 7 0 18 -7 26 -16 14 -17 82 -54
100 -54 6 0 9 7 5 15 -3 8 -1 15 4 15 6 0 10 -4 10 -10 0 -5 5 -10 11 -10 8 0
7 5 -1 15 -10 12 -10 19 -2 27 7 7 12 15 12 19 0 15 -39 19 -65 7 -23 -10 -29
-10 -39 4 -9 12 -17 13 -29 7 -14 -8 -17 -6 -17 11 0 21 -33 29 -45 10z"/>
<path d="M6860 2270 c0 -5 5 -10 10 -10 6 0 10 5 10 10 0 6 -4 10 -10 10 -5 0
-10 -4 -10 -10z"/>
<path d="M6750 2230 c-9 -6 -10 -10 -3 -10 6 0 15 5 18 10 8 12 4 12 -15 0z"/>
<path d="M6850 2230 c0 -5 5 -10 11 -10 6 0 2 -8 -10 -17 l-21 -18 29 -17 29
-16 -2 31 c-2 18 -4 38 -5 45 -1 14 -31 17 -31 2z"/>
<path d="M6746 2181 c-7 -10 22 -37 30 -28 9 8 -3 37 -15 37 -5 0 -12 -4 -15
-9z"/>
<path d="M3695 2880 c-3 -5 1 -10 9 -10 9 0 16 5 16 10 0 6 -4 10 -9 10 -6 0
-13 -4 -16 -10z"/>
<path d="M4140 2799 c0 -5 5 -7 10 -4 6 3 10 8 10 11 0 2 -4 4 -10 4 -5 0 -10
-5 -10 -11z"/>
<path d="M4206 2794 c-11 -7 -18 -16 -15 -18 2 -2 13 2 23 10 11 7 18 16 15
18 -2 2 -13 -2 -23 -10z"/>
<path d="M4256 2764 c-11 -8 -16 -14 -10 -14 13 0 39 18 34 24 -3 2 -14 -2
-24 -10z"/>
<path d="M4357 2723 c-4 -3 -7 -11 -7 -17 0 -6 5 -5 12 2 6 6 9 14 7 17 -3 3
-9 2 -12 -2z"/>
<path d="M4366 2695 c-11 -8 -18 -17 -15 -19 2 -3 15 4 29 14 14 11 21 20 15
19 -5 0 -19 -6 -29 -14z"/>
<path d="M3920 2740 c-14 -11 -20 -20 -14 -20 14 0 50 27 44 33 -3 3 -16 -3
-30 -13z"/>
<path d="M3980 2690 c-8 -5 -11 -12 -7 -16 4 -4 13 -2 19 4 15 15 7 24 -12 12z"/>
<path d="M4030 2690 c-8 -5 -11 -12 -7 -16 4 -4 13 -2 19 4 15 15 7 24 -12 12z"/>
<path d="M4176 2595 c-11 -8 -15 -15 -9 -15 6 0 16 7 23 15 16 19 11 19 -14 0z"/>
<path d="M4300 2520 c-9 -6 -10 -10 -3 -10 6 0 15 5 18 10 8 12 4 12 -15 0z"/>
<path d="M4340 2490 c-8 -5 -12 -11 -9 -14 3 -3 14 1 25 9 21 16 8 20 -16 5z"/>
<path d="M4369 2471 c-13 -11 -19 -20 -14 -20 14 0 50 28 43 34 -3 3 -16 -3
-29 -14z"/>
<path d="M4480 2410 c-24 -19 -24 -19 -2 -13 12 3 25 10 28 15 11 18 -1 17
-26 -2z"/>
<path d="M4510 2395 c-7 -8 -8 -15 -2 -15 5 0 15 7 22 15 7 8 8 15 2 15 -5 0
-15 -7 -22 -15z"/>
<path d="M4543 2378 c-13 -6 -23 -14 -23 -19 0 -11 38 1 51 17 13 16 3 17 -28
2z"/>
<path d="M4578 2362 c-27 -16 -37 -32 -20 -32 9 0 52 38 52 45 0 6 0 6 -32
-13z"/>
<path d="M4640 2325 c-11 -13 -10 -14 4 -9 9 3 16 10 16 15 0 13 -6 11 -20 -6z"/>
<path d="M4640 2300 c-8 -5 -12 -11 -10 -14 3 -2 14 2 24 10 22 15 10 19 -14
4z"/>
<path d="M4853 2198 c-13 -6 -23 -15 -23 -20 0 -10 36 7 45 22 7 12 7 12 -22
-2z"/>
<path d="M4883 2178 c-13 -6 -23 -15 -23 -20 0 -5 14 -2 30 7 45 23 38 35 -7
13z"/>
<path d="M4904 2155 c-10 -8 -14 -15 -8 -15 6 0 17 7 24 15 16 19 9 19 -16 0z"/>
<path d="M4930 2135 c-16 -19 0 -19 26 0 16 12 16 14 3 15 -9 0 -22 -7 -29
-15z"/>
<path d="M4964 2115 c-10 -8 -14 -14 -9 -14 6 0 19 6 29 14 11 8 15 15 10 15
-6 0 -19 -7 -30 -15z"/>
<path d="M5024 2085 c-10 -8 -14 -15 -8 -15 6 0 17 7 24 15 16 19 9 19 -16 0z"/>
<path d="M5055 2070 c-21 -23 -9 -26 18 -6 10 8 14 17 9 20 -5 3 -17 -3 -27
-14z"/>
<path d="M5091 2049 c-12 -12 -20 -24 -16 -27 3 -3 15 4 27 16 28 28 18 38
-11 11z"/>
<path d="M5324 1916 c-22 -17 -11 -35 13 -20 19 12 29 34 16 34 -5 0 -18 -6
-29 -14z"/>
<path d="M4460 2660 c-8 -5 -12 -12 -9 -15 4 -3 12 1 19 10 14 17 11 19 -10 5z"/>
<path d="M4535 2610 c-3 -5 -2 -10 4 -10 5 0 13 5 16 10 3 6 2 10 -4 10 -5 0
-13 -4 -16 -10z"/>
<path d="M4565 2600 c-3 -5 -1 -10 4 -10 6 0 11 5 11 10 0 6 -2 10 -4 10 -3 0
-8 -4 -11 -10z"/>
<path d="M4631 2549 c-31 -25 -23 -33 9 -9 14 10 23 21 20 23 -3 3 -16 -3 -29
-14z"/>
<path d="M4665 2540 c-3 -5 -2 -10 4 -10 5 0 13 5 16 10 3 6 2 10 -4 10 -5 0
-13 -4 -16 -10z"/>
<path d="M4713 2508 c-13 -6 -23 -15 -23 -20 0 -5 11 -1 25 8 37 24 35 30 -2
12z"/>
<path d="M4726 2485 c-11 -8 -16 -15 -10 -15 5 0 18 7 28 15 11 8 16 15 10 15
-5 0 -18 -7 -28 -15z"/>
<path d="M4813 2448 c-13 -6 -23 -15 -23 -20 0 -5 11 -1 25 8 37 24 35 30 -2
12z"/>
<path d="M7860 2356 c-15 -19 -5 -36 21 -36 22 0 25 22 5 39 -10 9 -16 8 -26
-3z"/>
<path d="M8075 2400 c3 -5 8 -10 11 -10 2 0 4 5 4 10 0 6 -5 10 -11 10 -5 0
-7 -4 -4 -10z"/>
<path d="M5047 2314 c-16 -9 -27 -18 -24 -20 7 -7 57 18 57 28 0 10 1 10 -33
-8z"/>
<path d="M5278 2186 c-25 -18 -22 -29 3 -16 11 7 23 9 26 6 3 -3 -2 -8 -11
-12 -9 -3 -16 -10 -16 -15 0 -5 11 -2 25 7 21 14 22 18 10 30 -16 17 -16 17
-37 0z"/>
<path d="M5387 2133 c-12 -12 -7 -22 8 -17 8 4 15 10 15 15 0 11 -14 12 -23 2z"/>
<path d="M5425 2120 c-3 -5 -1 -10 4 -10 6 0 11 5 11 10 0 6 -2 10 -4 10 -3 0
-8 -4 -11 -10z"/>
<path d="M5598 2300 c-32 -25 -36 -50 -10 -73 41 -38 140 -28 163 15 9 17 7
25 -14 45 -35 36 -103 42 -139 13z"/>
<path d="M5940 2080 c-9 -6 -10 -10 -3 -10 6 0 15 5 18 10 8 12 4 12 -15 0z"/>
<path d="M3480 1367 c-61 -21 -68 -96 -11 -130 38 -22 68 -22 108 3 52 31 57
84 11 114 -35 22 -69 27 -108 13z m70 -32 c0 -8 -6 -15 -14 -15 -17 0 -28 14
-19 24 12 12 33 6 33 -9z"/>
<path d="M3275 1240 c-32 -12 -47 -36 -48 -76 -2 -63 67 -103 126 -73 44 23
67 52 67 86 0 23 -7 37 -22 47 -29 18 -97 27 -123 16z"/>
<path d="M3632 1207 c-31 -33 -29 -80 4 -106 70 -55 193 16 154 89 -24 45
-122 56 -158 17z m98 -15 c0 -14 -11 -21 -26 -15 -8 3 -11 9 -8 14 7 11 34 12
34 1z"/>
<path d="M3039 1091 c-82 -83 21 -189 126 -128 69 39 74 116 10 143 -57 23
-102 18 -136 -15z"/>
<path d="M3422 1075 c-65 -83 30 -171 128 -120 34 17 50 43 50 78 0 38 -33 60
-99 65 -54 4 -59 2 -79 -23z m103 -15 c3 -5 1 -10 -4 -10 -6 0 -11 5 -11 10 0
6 2 10 4 10 3 0 8 -4 11 -10z"/>
<path d="M3833 1090 c-29 -12 -45 -44 -41 -82 4 -47 55 -75 107 -60 77 24 109
102 51 128 -38 17 -92 24 -117 14z m82 -29 c3 -5 1 -13 -5 -16 -15 -9 -43 3
-35 15 8 13 32 13 40 1z"/>
<path d="M3215 945 c-74 -73 7 -175 110 -139 48 16 74 49 75 91 0 25 -7 36
-34 52 -48 30 -119 29 -151 -4z"/>
<path d="M3635 958 c-58 -34 -71 -93 -30 -133 60 -61 200 2 181 81 -11 41
-110 75 -151 52z"/>
<path d="M3419 815 c-37 -20 -62 -76 -50 -109 22 -57 112 -78 169 -38 40 29
59 75 42 106 -23 44 -115 67 -161 41z"/>
</g>
</svg>
