<svg xmlns="http://www.w3.org/2000/svg" width="380" height="231" style="shape-rendering:geometricPrecision;text-rendering:geometricPrecision;image-rendering:optimizeQuality;fill-rule:evenodd;clip-rule:evenodd"><path style="opacity:1" fill="#002038" d="M-.5-.5h380v231H-.5V-.5Z"/><path style="opacity:1" fill="#83939e" d="M40.5 153.5a3306.79 3306.79 0 0 1-1-115h299v116c-99.501.333-198.835-.001-298-1Z"/><path style="opacity:1" fill="#fdfefe" d="M40.5 153.5v-114h297v114h-297Z"/><path style="opacity:1" fill="#55588d" d="M274.5 72.5a841.021 841.021 0 0 0-55-1v59a900.975 900.975 0 0 1-1-60c17.337-.167 34.67 0 52 .5 1.558.21 2.891.71 4 1.5Z"/><path style="opacity:1" fill="#25246a" d="M112.5 70.5c2.792-.048 4.625 1.285 5.5 4a1473.26 1473.26 0 0 0 25 45c2.364 3.719 3.864 7.719 4.5 12-1.89.203-3.39-.463-4.5-2a401.382 401.382 0 0 0-9.5-16.5c-13-.667-26-.667-39 0a401.729 401.729 0 0 0-9.5 16.5c-1.11 1.537-2.61 2.203-4.5 2-.04-2.925.793-5.591 2.5-8a1026.58 1026.58 0 0 0 29.5-53Z"/><path style="opacity:1" fill="#1a1a63" d="M208.5 73.5h-33v55c-.12 1.086-.787 1.753-2 2-1.213-.247-1.88-.914-2-2v-55h-33v-3h70v3Z"/><path style="opacity:1" fill="#242369" d="M274.5 72.5c8.974 1.469 15.141 6.469 18.5 15 2.663 11.081 1.663 21.748-3 32-5.229 5.866-11.729 9.532-19.5 11-17.162 1.327-34.162 1.327-51 0v-59c18.357-.266 36.69.067 55 1Z"/><path style="opacity:1" fill="#8385ac" d="M223.5 74.5c16.531-1.397 33.197-1.23 50 .5 1.82.2 3.153 1.034 4 2.5a38.496 38.496 0 0 0-13-2 420.86 420.86 0 0 0-41-1Z"/><path style="opacity:1" fill="#b7b8ce" d="M138.5 73.5h33v55a729.545 729.545 0 0 1-1-54c-10.846.328-21.513-.006-32-1Z"/><path style="opacity:1" fill="#8689ae" d="M208.5 73.5c-10.487.994-21.154 1.328-32 1a729.545 729.545 0 0 1-1 54v-55h33Z"/><path style="opacity:1" fill="#dbdce7" d="M223.5 74.5a420.86 420.86 0 0 1 41 1h-40v51h45a529.493 529.493 0 0 1-46 1v-53Z"/><path style="opacity:1" fill="#fefefe" d="M264.5 75.5c4.462-.077 8.795.59 13 2 4.234 1.231 7.234 3.898 9 8 2.252 9.221 2.586 18.554 1 28-1.25 4.517-3.917 7.85-8 10-1.903.296-3.57.963-5 2-1.792-.134-3.458.199-5 1h-45v-51h40Z"/><path style="opacity:1" fill="#f5f5f8" d="M130.5 107.5c-11 1.333-22 1.333-33 0a262.7 262.7 0 0 1 16.5-30 218.71 218.71 0 0 1 16.5 30Z"/><path style="opacity:1" fill="#d2d3e1" d="M286.5 85.5c1.293 1.342 2.126 3.009 2.5 5a100.2 100.2 0 0 1 0 20c-.232 1.237-.732 2.237-1.5 3 1.586-9.446 1.252-18.779-1-28Z"/><path style="opacity:1" fill="#acaec8" d="M97.5 107.5c11 1.333 22 1.333 33 0 .543.06.876.393 1 1a153.663 153.663 0 0 1-35 0c.124-.607.457-.94 1-1Z"/><path style="opacity:1" fill="#70719f" d="M279.5 123.5c-1.135 1.713-2.802 2.38-5 2 1.43-1.037 3.097-1.704 5-2Z"/><path style="opacity:1" fill="#bcc5cb" d="M147.5 174.5a21.127 21.127 0 0 1 9 1c-.825.886-1.825 1.219-3 1v14h-3v-14c-1.679.215-2.679-.452-3-2Z"/><path style="opacity:1" fill="#dfe3e6" d="M176.5 174.5c1.676.683 2.343 2.017 2 4 1.967-.239 3.801.094 5.5 1 .825 3.711.659 7.378-.5 11a25.879 25.879 0 0 1-1-10h-4a25.879 25.879 0 0 1-1 10 64.873 64.873 0 0 1-1-16Z"/><path style="opacity:1" fill="#e8ebee" d="M209.5 174.5c1.312 2.243 1.978 4.91 2 8l-1 8a64.873 64.873 0 0 1-1-16Z"/><path style="opacity:1" fill="#cfd5d9" d="M285.5 173.5c3.81 1.254 3.81 2.254 0 3v-3Z"/><path style="opacity:1" fill="#c9d0d5" d="M252.5 174.5c7.314-2.006 10.647.66 10 8 .647 7.34-2.686 10.006-10 8v-16Z"/><path style="opacity:1" fill="#03233b" d="M255.5 176.5h4v12h-4v-12Z"/><path style="opacity:1" fill="#bfc7cd" d="M102.5 178.5c2.619-.268 5.119.065 7.5 1 .825 3.711.659 7.378-.5 11a25.879 25.879 0 0 1-1-10h-3v10h-3v-12Z"/><path style="opacity:1" fill="#e8ebed" d="M285.5 178.5c1.294 1.548 1.961 3.548 2 6l-1 6a36.875 36.875 0 0 1-1-12Z"/><path style="opacity:1" fill="#ced4d9" d="M81.5 178.5c.876-.131 1.543.202 2 1 1.333 8 2.667 8 4 0 .86-1.274 1.526-1.108 2 .5a116.175 116.175 0 0 0-2 10.5h-4l-2-12Z"/><path style="opacity:1" fill="#e5e8eb" d="M92.5 178.5c2.293-.256 4.46.077 6.5 1a60.94 60.94 0 0 1 .5 11c-2.62.268-5.12-.065-7.5-1-1.509-4.993.325-6.993 5.5-6v-3c-2.281.423-3.948-.244-5-2Z"/><path style="opacity:1" fill="#d3d9dd" d="M123.5 178.5c5.613-1.421 7.78.579 6.5 6a60.667 60.667 0 0 1-5.5 3l5 2c-2.195 1.269-4.361 1.269-6.5 0-.755-3.755-.589-7.422.5-11Z"/><path style="opacity:1" fill="#30475b" d="M124.5 180.5h4c.333 3-1 4.333-4 4v-4Z"/><path style="opacity:1" fill="#d4d9dd" d="M158.5 178.5c5.735-.679 7.402 1.655 5 7-5.102 1.662-4.768 2.996 1 4-2.195 1.269-4.361 1.269-6.5 0-.755-3.755-.589-7.422.5-11Z"/><path style="opacity:1" fill="#06253d" d="M159.5 180.5h3v3h-3v-3Z"/><path style="opacity:1" fill="#d4d9dd" d="M168.5 178.5c1.788-.285 3.455.048 5 1-1.189.929-2.522 1.262-4 1v8c1.788-.285 3.455.048 5 1-2.195 1.269-4.361 1.269-6.5 0-.755-3.755-.589-7.422.5-11Z"/><path style="opacity:1" fill="#dee2e5" d="M187.5 178.5c2.619-.268 5.119.065 7.5 1 .825 3.711.659 7.378-.5 11a25.879 25.879 0 0 1-1-10h-4a25.879 25.879 0 0 1-1 10 36.875 36.875 0 0 1-1-12Z"/><path style="opacity:1" fill="#d9dee1" d="M199.5 178.5c2.292-.256 4.459.077 6.5 1 .789 3.591.622 7.091-.5 10.5-2.269.758-4.436.591-6.5-.5-.755-3.755-.589-7.422.5-11Z"/><path style="opacity:1" fill="#05253c" d="M200.5 180.5h4v8h-4v-8Z"/><path style="opacity:1" fill="#d9dee1" d="M216.5 178.5c2.544-.396 4.711.271 6.5 2 1.004 3.493.504 6.659-1.5 9.5-1.941.743-3.774.576-5.5-.5-.755-3.755-.589-7.422.5-11Z"/><path style="opacity:1" fill="#1b344a" d="M217.5 180.5h4v8h-4v-8Z"/><path style="opacity:1" fill="#d3d9dd" d="M227.5 178.5h7a98.432 98.432 0 0 1-.5 14c-2.179 2.137-4.679 2.471-7.5 1 6.26-1.185 6.427-2.519.5-4-.755-3.755-.589-7.422.5-11Z"/><path style="opacity:1" fill="#04243b" d="M228.5 180.5h3v8h-3v-8Z"/><path style="opacity:1" fill="#d3d9dd" d="M266.5 178.5c5.613-1.421 7.78.579 6.5 6a60.667 60.667 0 0 1-5.5 3l5 2c-2.195 1.269-4.361 1.269-6.5 0-.755-3.755-.589-7.422.5-11Z"/><path style="opacity:1" fill="#30475b" d="M267.5 180.5h4c.333 3-1 4.333-4 4v-4Z"/><path style="opacity:1" fill="#d4dade" d="M274.5 178.5h3c1 12 2 12 3 0 1.175-.219 2.175.114 3 1-3.631 14.624-6.631 14.291-9-1Z"/><path style="opacity:1" fill="#d8dde1" d="M292.5 178.5c1.788-.285 3.455.048 5 1-1.189.929-2.522 1.262-4 1v8c1.478-.262 2.811.071 4 1-1.853 1.26-3.686 1.26-5.5 0-.755-3.755-.589-7.422.5-11Z"/><path style="opacity:1" fill="#cfd5d9" d="M311.5 178.5c1.788-.285 3.455.048 5 1-1.189.929-2.522 1.262-4 1v3c3.823-.333 5.323 1.334 4.5 5-2.218 2.119-4.718 2.452-7.5 1 1.545-.952 3.212-1.285 5-1v-3c-5.339-.323-6.339-2.657-3-7Z"/><path style="opacity:1" fill="#d5dade" d="M76.5 174.5c1.312 2.243 1.978 4.91 2 8l-.5 8c-2.046.049-4.213-.285-6.5-1-1.075-2.938-1.242-5.938-.5-9 1.444-1.655 3.278-2.322 5.5-2v-4Z"/><path style="opacity:1" fill="#02223a" d="M73.5 180.5h3v8h-3v-8Z"/><path style="opacity:1" fill="#d5dade" d="M138.5 174.5c1.312 2.243 1.978 4.91 2 8l-.5 8c-2.046.049-4.213-.285-6.5-1-1.075-2.938-1.241-5.938-.5-9 1.444-1.655 3.278-2.322 5.5-2v-4Z"/><path style="opacity:1" fill="#02223a" d="M135.5 180.5h3v8h-3v-8Z"/><path style="opacity:1" fill="#dadfe2" d="M61.5 174.5c1.951-.273 3.451.393 4.5 2a285.483 285.483 0 0 0 2.5 11.5l-1 2.5c-.929-1.189-1.262-2.522-1-4-3.658-.82-5.991.513-7 4l-1-2.5a390.196 390.196 0 0 0 3-13.5Z"/><path style="opacity:1" fill="#112d44" d="M62.5 179.5c1.585.974 2.585 2.474 3 4.5a4.934 4.934 0 0 1-3 .5v-5Z"/><path style="opacity:1" fill="#cbd2d7" d="M301.5 178.5c5.175-.993 7.009 1.007 5.5 6a14.748 14.748 0 0 1-4.5 3l5 2c-7.48 1.671-9.98-1.329-7.5-9 .717-.544 1.217-1.211 1.5-2Z"/><path style="opacity:1" fill="#03233b" d="M302.5 180.5h3v3h-3v-3Z"/><path style="opacity:1" fill="#142f46" d="M93.5 185.5h4v3h-4v-3Z"/><path style="opacity:1" fill="#d0d5da" d="M236.5 178.5c.996-.086 1.829.248 2.5 1 1.258 8.773 2.425 8.94 3.5.5.852-1.898 1.519-1.731 2 .5a325.633 325.633 0 0 1-2.5 11c-1.037 2.884-2.871 3.55-5.5 2l3-2a75.833 75.833 0 0 1-3-13Z"/><path style="opacity:1" fill="#c9cfd5" d="M114.5 178.5a9.86 9.86 0 0 1 6 1c-1.545.952-3.212 1.285-5 1v8c1.788-.285 3.455.048 5 1-2.195 1.269-4.361 1.269-6.5 0-.755-3.755-.589-7.422.5-11Z"/></svg>